<svg xmlns="http://www.w3.org/2000/svg" xmlns:xlink="http://www.w3.org/1999/xlink" viewBox="0 0 360 83.37"><defs><style>.cls-1{fill:none;}.cls-2{clip-path:url(#clip-path);}.cls-3{fill:#008ee9;}.cls-4{fill:#018ee8;}.cls-5{fill:#028ee7;}.cls-6{fill:#038ee6;}.cls-7{fill:#048ee5;}.cls-8{clip-path:url(#clip-path-2);}.cls-9{fill:#108fda;}.cls-10{fill:#118fd9;}.cls-11{fill:#128fd8;}.cls-12{fill:#138fd8;}.cls-13{fill:#148fd7;}.cls-14{clip-path:url(#clip-path-3);}.cls-15{fill:#208fcc;}.cls-16{fill:#218fcb;}.cls-17{fill:#228fca;}.cls-18{fill:#238fc9;}.cls-19{fill:#248fc8;}.cls-20{clip-path:url(#clip-path-4);}.cls-21{fill:#3090bd;}.cls-22{fill:#3190bc;}.cls-23{fill:#3290bb;}.cls-24{fill:#3390ba;}.cls-25{clip-path:url(#clip-path-5);}.cls-26{fill:#3f90af;}.cls-27{fill:#4091ae;}.cls-28{fill:#4191ad;}.cls-29{fill:#4291ac;}.cls-30{fill:#4391ac;}.cls-31{clip-path:url(#clip-path-6);}.cls-32{fill:#4f91a1;}.cls-33{fill:#5091a0;}.cls-34{fill:#51919f;}.cls-35{fill:#52919e;}.cls-36{fill:#53919d;}.cls-37{clip-path:url(#clip-path-7);}.cls-38{fill:#5f9292;}.cls-39{fill:#609291;}.cls-40{fill:#619290;}.cls-41{fill:#62928f;}.cls-42{fill:#63928e;}.cls-43{clip-path:url(#clip-path-8);}.cls-44{fill:#6f9283;}.cls-45{fill:#709282;}.cls-46{fill:#719281;}.cls-47{fill:#729280;}.cls-48{clip-path:url(#clip-path-9);}.cls-49{fill:#7e9375;}.cls-50{fill:#809375;}.cls-51{fill:#819374;}.cls-52{fill:#829373;}.cls-53{fill:#839372;}.cls-54{clip-path:url(#clip-path-10);}.cls-55{fill:#8f9467;}.cls-56{fill:#909466;}.cls-57{fill:#919465;}.cls-58{fill:#929464;}.cls-59{fill:#939463;}.cls-60{clip-path:url(#clip-path-11);}.cls-61{fill:#9f9458;}.cls-62{fill:#a09457;}.cls-63{fill:#a19456;}.cls-64{fill:#a29455;}.cls-65{fill:#a39454;}.cls-66{clip-path:url(#clip-path-12);}.cls-67{fill:#af9549;}.cls-68{fill:#b09548;}.cls-69{fill:#b19548;}.cls-70{fill:#b29547;}.cls-71{fill:#b39546;}.cls-72{clip-path:url(#clip-path-13);}.cls-73{fill:#be953c;}.cls-74{fill:#bf953b;}.cls-75{fill:#c0963a;}.cls-76{fill:#c19639;}.cls-77{fill:#c29638;}.cls-78{clip-path:url(#clip-path-14);}.cls-79{fill:#ce962d;}.cls-80{fill:#cf962c;}.cls-81{fill:#d0962b;}.cls-82{fill:#d1962a;}.cls-83{fill:#d29629;}.cls-84{clip-path:url(#clip-path-15);}.cls-85{fill:#de971e;}.cls-86{fill:#df971d;}.cls-87{fill:#e0971c;}.cls-88{fill:#e1971c;}.cls-89{fill:#e2971b;}.cls-90{clip-path:url(#clip-path-16);}.cls-91{fill:#ee9710;}.cls-92{fill:#ef970f;}.cls-93{fill:#f0970e;}.cls-94{fill:#f1970d;}.cls-95{fill:#f2970c;}.cls-96{clip-path:url(#clip-path-17);}.cls-97{fill:#fd9802;}.cls-98{fill:#fe9801;}.cls-99{fill:#ff9800;}</style><clipPath id="clip-path"><path class="cls-1" d="M357.26,0h0a2.75,2.75,0,0,0-2.75,2.74V80.62a2.75,2.75,0,0,0,2.75,2.75h0A2.74,2.74,0,0,0,360,80.63h0V2.74A2.74,2.74,0,0,0,357.26,0Z"/></clipPath><clipPath id="clip-path-2"><path class="cls-1" d="M335.1,5.48h0a2.75,2.75,0,0,0-2.74,2.75V75.14a2.74,2.74,0,0,0,2.74,2.74h0a2.74,2.74,0,0,0,2.74-2.74h0V8.23a2.75,2.75,0,0,0-2.74-2.75Z"/></clipPath><clipPath id="clip-path-3"><path class="cls-1" d="M312.94,8.78h0a2.74,2.74,0,0,0-2.74,2.74V71.85a2.75,2.75,0,0,0,2.74,2.75h0a2.75,2.75,0,0,0,2.75-2.75h0V11.52a2.74,2.74,0,0,0-2.75-2.74Z"/></clipPath><clipPath id="clip-path-4"><path class="cls-1" d="M290.79,12.07h0A2.74,2.74,0,0,0,288,14.81V68.56a2.75,2.75,0,0,0,2.75,2.74h0a2.74,2.74,0,0,0,2.74-2.74h0V14.81a2.74,2.74,0,0,0-2.74-2.74Z"/></clipPath><clipPath id="clip-path-5"><path class="cls-1" d="M268.63,15.36h0a2.74,2.74,0,0,0-2.74,2.74V65.27A2.74,2.74,0,0,0,268.63,68h0a2.74,2.74,0,0,0,2.74-2.74h0V18.1a2.74,2.74,0,0,0-2.74-2.74Z"/></clipPath><clipPath id="clip-path-6"><path class="cls-1" d="M246.47,17.55h0a2.74,2.74,0,0,0-2.74,2.74V63.08a2.74,2.74,0,0,0,2.74,2.74h0a2.74,2.74,0,0,0,2.74-2.74h0V20.29a2.74,2.74,0,0,0-2.74-2.74Z"/></clipPath><clipPath id="clip-path-7"><path class="cls-1" d="M224.31,21.94h0a2.74,2.74,0,0,0-2.74,2.74v34a2.74,2.74,0,0,0,2.74,2.74h0a2.74,2.74,0,0,0,2.75-2.74h0v-34a2.75,2.75,0,0,0-2.74-2.75Z"/></clipPath><clipPath id="clip-path-8"><path class="cls-1" d="M202.16,25.23h0A2.75,2.75,0,0,0,199.41,28V55.4a2.75,2.75,0,0,0,2.75,2.74h0a2.74,2.74,0,0,0,2.74-2.74h0V28a2.74,2.74,0,0,0-2.74-2.74Z"/></clipPath><clipPath id="clip-path-9"><path class="cls-1" d="M180,28.52h0a2.74,2.74,0,0,0-2.74,2.74V52.11A2.74,2.74,0,0,0,180,54.85h0a2.74,2.74,0,0,0,2.74-2.74h0V31.26A2.74,2.74,0,0,0,180,28.52Z"/></clipPath><clipPath id="clip-path-10"><path class="cls-1" d="M157.84,25.23h0A2.74,2.74,0,0,0,155.1,28V55.4a2.74,2.74,0,0,0,2.74,2.74h0a2.75,2.75,0,0,0,2.75-2.74h0V28a2.75,2.75,0,0,0-2.75-2.74Z"/></clipPath><clipPath id="clip-path-11"><path class="cls-1" d="M135.69,21.94h0a2.75,2.75,0,0,0-2.75,2.74v34a2.74,2.74,0,0,0,2.74,2.74h0a2.74,2.74,0,0,0,2.74-2.74h0v-34a2.74,2.74,0,0,0-2.74-2.75Z"/></clipPath><clipPath id="clip-path-12"><path class="cls-1" d="M113.53,17.55h0a2.74,2.74,0,0,0-2.74,2.74V63.08a2.74,2.74,0,0,0,2.74,2.74h0a2.74,2.74,0,0,0,2.74-2.74h0V20.29a2.74,2.74,0,0,0-2.74-2.74Z"/></clipPath><clipPath id="clip-path-13"><path class="cls-1" d="M91.37,15.36h0a2.74,2.74,0,0,0-2.74,2.74V65.27A2.74,2.74,0,0,0,91.37,68h0a2.73,2.73,0,0,0,2.74-2.74h0V18.1a2.73,2.73,0,0,0-2.74-2.74Z"/></clipPath><clipPath id="clip-path-14"><path class="cls-1" d="M69.21,12.07h0a2.74,2.74,0,0,0-2.74,2.74V68.56a2.74,2.74,0,0,0,2.74,2.74h0A2.74,2.74,0,0,0,72,68.56h0V14.81a2.74,2.74,0,0,0-2.74-2.74Z"/></clipPath><clipPath id="clip-path-15"><path class="cls-1" d="M47.06,8.78h0a2.74,2.74,0,0,0-2.75,2.74V71.85a2.75,2.75,0,0,0,2.75,2.75h0a2.75,2.75,0,0,0,2.74-2.75h0V11.52a2.74,2.74,0,0,0-2.74-2.74Z"/></clipPath><clipPath id="clip-path-16"><path class="cls-1" d="M24.9,5.48h0a2.74,2.74,0,0,0-2.74,2.75V75.14a2.73,2.73,0,0,0,2.74,2.74h0a2.74,2.74,0,0,0,2.74-2.74h0V8.23A2.75,2.75,0,0,0,24.9,5.48Z"/></clipPath><clipPath id="clip-path-17"><path class="cls-1" d="M2.74,0h0A2.74,2.74,0,0,0,0,2.74V80.62a2.75,2.75,0,0,0,2.74,2.75h0a2.75,2.75,0,0,0,2.75-2.74h0V2.74A2.75,2.75,0,0,0,2.74,0Z"/></clipPath></defs><g id="Layer_2" data-name="Layer 2"><g id="Layer_1-2" data-name="Layer 1"><g id="Rectangle_1590" data-name="Rectangle 1590"><g id="Group_4326" data-name="Group 4326"><g class="cls-2"><g id="Group_4325" data-name="Group 4325"><g id="Rectangle_2048" data-name="Rectangle 2048"><rect class="cls-3" x="359.58" width="0.42" height="83.37"/></g><g id="Rectangle_2049" data-name="Rectangle 2049"><rect class="cls-4" x="358.18" width="1.41" height="83.37"/></g><g id="Rectangle_2050" data-name="Rectangle 2050"><rect class="cls-5" x="356.77" width="1.41" height="83.37"/></g><g id="Rectangle_2051" data-name="Rectangle 2051"><rect class="cls-6" x="355.37" width="1.41" height="83.37"/></g><g id="Rectangle_2052" data-name="Rectangle 2052"><rect class="cls-7" x="354.51" width="0.85" height="83.37"/></g></g></g></g></g><g id="Rectangle_1591" data-name="Rectangle 1591"><g id="Group_4328" data-name="Group 4328"><g class="cls-8"><g id="Group_4327" data-name="Group 4327"><g id="Rectangle_2053" data-name="Rectangle 2053"><rect class="cls-9" x="337.1" y="5.48" width="0.74" height="72.4"/></g><g id="Rectangle_2054" data-name="Rectangle 2054"><rect class="cls-10" x="335.69" y="5.48" width="1.41" height="72.4"/></g><g id="Rectangle_2055" data-name="Rectangle 2055"><rect class="cls-11" x="334.29" y="5.48" width="1.41" height="72.4"/></g><g id="Rectangle_2056" data-name="Rectangle 2056"><rect class="cls-12" x="332.88" y="5.48" width="1.41" height="72.4"/></g><g id="Rectangle_2057" data-name="Rectangle 2057"><rect class="cls-13" x="332.36" y="5.48" width="0.53" height="72.4"/></g></g></g></g></g><g id="Rectangle_1592" data-name="Rectangle 1592"><g id="Group_4330" data-name="Group 4330"><g class="cls-14"><g id="Group_4329" data-name="Group 4329"><g id="Rectangle_2058" data-name="Rectangle 2058"><rect class="cls-15" x="314.62" y="8.78" width="1.07" height="65.82"/></g><g id="Rectangle_2059" data-name="Rectangle 2059"><rect class="cls-16" x="313.21" y="8.78" width="1.41" height="65.82"/></g><g id="Rectangle_2060" data-name="Rectangle 2060"><rect class="cls-17" x="311.81" y="8.78" width="1.41" height="65.82"/></g><g id="Rectangle_2061" data-name="Rectangle 2061"><rect class="cls-18" x="310.4" y="8.78" width="1.41" height="65.82"/></g><g id="Rectangle_2062" data-name="Rectangle 2062"><rect class="cls-19" x="310.2" y="8.78" width="0.2" height="65.82"/></g></g></g></g></g><g id="Rectangle_1593" data-name="Rectangle 1593"><g id="Group_4332" data-name="Group 4332"><g class="cls-20"><g id="Group_4331" data-name="Group 4331"><g id="Rectangle_2063" data-name="Rectangle 2063"><rect class="cls-21" x="292.14" y="12.07" width="1.39" height="59.23"/></g><g id="Rectangle_2064" data-name="Rectangle 2064"><rect class="cls-22" x="290.73" y="12.07" width="1.41" height="59.23"/></g><g id="Rectangle_2065" data-name="Rectangle 2065"><rect class="cls-23" x="289.32" y="12.07" width="1.41" height="59.23"/></g><g id="Rectangle_2066" data-name="Rectangle 2066"><rect class="cls-24" x="288.04" y="12.07" width="1.28" height="59.23"/></g></g></g></g></g><g id="Rectangle_1594" data-name="Rectangle 1594"><g id="Group_4334" data-name="Group 4334"><g class="cls-25"><g id="Group_4333" data-name="Group 4333"><g id="Rectangle_2067" data-name="Rectangle 2067"><rect class="cls-26" x="271.05" y="15.36" width="0.32" height="52.65"/></g><g id="Rectangle_2068" data-name="Rectangle 2068"><rect class="cls-27" x="269.65" y="15.36" width="1.41" height="52.65"/></g><g id="Rectangle_2069" data-name="Rectangle 2069"><rect class="cls-28" x="268.24" y="15.36" width="1.41" height="52.65"/></g><g id="Rectangle_2070" data-name="Rectangle 2070"><rect class="cls-29" x="266.84" y="15.36" width="1.41" height="52.65"/></g><g id="Rectangle_2071" data-name="Rectangle 2071"><rect class="cls-30" x="265.89" y="15.36" width="0.95" height="52.65"/></g></g></g></g></g><g id="Rectangle_1595" data-name="Rectangle 1595"><g id="Group_4336" data-name="Group 4336"><g class="cls-31"><g id="Group_4335" data-name="Group 4335"><g id="Rectangle_2072" data-name="Rectangle 2072"><rect class="cls-32" x="248.57" y="17.55" width="0.64" height="48.27"/></g><g id="Rectangle_2073" data-name="Rectangle 2073"><rect class="cls-33" x="247.17" y="17.55" width="1.41" height="48.27"/></g><g id="Rectangle_2074" data-name="Rectangle 2074"><rect class="cls-34" x="245.76" y="17.55" width="1.41" height="48.27"/></g><g id="Rectangle_2075" data-name="Rectangle 2075"><rect class="cls-35" x="244.35" y="17.55" width="1.41" height="48.27"/></g><g id="Rectangle_2076" data-name="Rectangle 2076"><rect class="cls-36" x="243.73" y="17.55" width="0.63" height="48.27"/></g></g></g></g></g><g id="Rectangle_1596" data-name="Rectangle 1596"><g id="Group_4338" data-name="Group 4338"><g class="cls-37"><g id="Group_4337" data-name="Group 4337"><g id="Rectangle_2077" data-name="Rectangle 2077"><rect class="cls-38" x="226.09" y="21.94" width="0.97" height="39.49"/></g><g id="Rectangle_2078" data-name="Rectangle 2078"><rect class="cls-39" x="224.68" y="21.94" width="1.41" height="39.49"/></g><g id="Rectangle_2079" data-name="Rectangle 2079"><rect class="cls-40" x="223.28" y="21.94" width="1.41" height="39.49"/></g><g id="Rectangle_2080" data-name="Rectangle 2080"><rect class="cls-41" x="221.87" y="21.94" width="1.41" height="39.49"/></g><g id="Rectangle_2081" data-name="Rectangle 2081"><rect class="cls-42" x="221.57" y="21.94" width="0.3" height="39.49"/></g></g></g></g></g><g id="Rectangle_1597" data-name="Rectangle 1597"><g id="Group_4340" data-name="Group 4340"><g class="cls-43"><g id="Group_4339" data-name="Group 4339"><g id="Rectangle_2082" data-name="Rectangle 2082"><rect class="cls-44" x="203.61" y="25.23" width="1.29" height="32.91"/></g><g id="Rectangle_2083" data-name="Rectangle 2083"><rect class="cls-45" x="202.2" y="25.23" width="1.41" height="32.91"/></g><g id="Rectangle_2084" data-name="Rectangle 2084"><rect class="cls-46" x="200.8" y="25.23" width="1.41" height="32.91"/></g><g id="Rectangle_2085" data-name="Rectangle 2085"><rect class="cls-47" x="199.41" y="25.23" width="1.38" height="32.91"/></g></g></g></g></g><g id="Rectangle_1598" data-name="Rectangle 1598"><g id="Group_4342" data-name="Group 4342"><g class="cls-48"><g id="Group_4341" data-name="Group 4341"><g id="Rectangle_2086" data-name="Rectangle 2086"><rect class="cls-49" x="182.53" y="28.52" width="0.21" height="26.33"/></g><g id="Rectangle_2087" data-name="Rectangle 2087"><rect class="cls-50" x="181.12" y="28.52" width="1.41" height="26.33"/></g><g id="Rectangle_2088" data-name="Rectangle 2088"><rect class="cls-51" x="179.72" y="28.52" width="1.41" height="26.33"/></g><g id="Rectangle_2089" data-name="Rectangle 2089"><rect class="cls-52" x="178.31" y="28.52" width="1.41" height="26.33"/></g><g id="Rectangle_2090" data-name="Rectangle 2090"><rect class="cls-53" x="177.26" y="28.52" width="1.06" height="26.33"/></g></g></g></g></g><g id="Rectangle_1599" data-name="Rectangle 1599"><g id="Group_4344" data-name="Group 4344"><g class="cls-54"><g id="Group_4343" data-name="Group 4343"><g id="Rectangle_2091" data-name="Rectangle 2091"><rect class="cls-55" x="160.04" y="25.23" width="0.54" height="32.91"/></g><g id="Rectangle_2092" data-name="Rectangle 2092"><rect class="cls-56" x="158.64" y="25.23" width="1.41" height="32.91"/></g><g id="Rectangle_2093" data-name="Rectangle 2093"><rect class="cls-57" x="157.23" y="25.23" width="1.41" height="32.91"/></g><g id="Rectangle_2094" data-name="Rectangle 2094"><rect class="cls-58" x="155.83" y="25.23" width="1.41" height="32.91"/></g><g id="Rectangle_2095" data-name="Rectangle 2095"><rect class="cls-59" x="155.1" y="25.23" width="0.73" height="32.91"/></g></g></g></g></g><g id="Rectangle_1600" data-name="Rectangle 1600"><g id="Group_4346" data-name="Group 4346"><g class="cls-60"><g id="Group_4345" data-name="Group 4345"><g id="Rectangle_2096" data-name="Rectangle 2096"><rect class="cls-61" x="137.56" y="21.94" width="0.87" height="39.49"/></g><g id="Rectangle_2097" data-name="Rectangle 2097"><rect class="cls-62" x="136.15" y="21.94" width="1.41" height="39.49"/></g><g id="Rectangle_2098" data-name="Rectangle 2098"><rect class="cls-63" x="134.75" y="21.94" width="1.41" height="39.49"/></g><g id="Rectangle_2099" data-name="Rectangle 2099"><rect class="cls-64" x="133.34" y="21.94" width="1.41" height="39.49"/></g><g id="Rectangle_2100" data-name="Rectangle 2100"><rect class="cls-65" x="132.94" y="21.94" width="0.4" height="39.49"/></g></g></g></g></g><g id="Rectangle_1601" data-name="Rectangle 1601"><g id="Group_4348" data-name="Group 4348"><g class="cls-66"><g id="Group_4347" data-name="Group 4347"><g id="Rectangle_2101" data-name="Rectangle 2101"><rect class="cls-67" x="115.08" y="17.55" width="1.19" height="48.27"/></g><g id="Rectangle_2102" data-name="Rectangle 2102"><rect class="cls-68" x="113.67" y="17.55" width="1.41" height="48.27"/></g><g id="Rectangle_2103" data-name="Rectangle 2103"><rect class="cls-69" x="112.27" y="17.55" width="1.41" height="48.27"/></g><g id="Rectangle_2104" data-name="Rectangle 2104"><rect class="cls-70" x="110.86" y="17.55" width="1.41" height="48.27"/></g><g id="Rectangle_2105" data-name="Rectangle 2105"><rect class="cls-71" x="110.79" y="17.55" width="0.08" height="48.27"/></g></g></g></g></g><g id="Rectangle_1602" data-name="Rectangle 1602"><g id="Group_4350" data-name="Group 4350"><g class="cls-72"><g id="Group_4349" data-name="Group 4349"><g id="Rectangle_2106" data-name="Rectangle 2106"><rect class="cls-73" x="94" y="15.36" width="0.11" height="52.65"/></g><g id="Rectangle_2107" data-name="Rectangle 2107"><rect class="cls-74" x="92.6" y="15.36" width="1.41" height="52.65"/></g><g id="Rectangle_2108" data-name="Rectangle 2108"><rect class="cls-75" x="91.19" y="15.36" width="1.41" height="52.65"/></g><g id="Rectangle_2109" data-name="Rectangle 2109"><rect class="cls-76" x="89.78" y="15.36" width="1.41" height="52.65"/></g><g id="Rectangle_2110" data-name="Rectangle 2110"><rect class="cls-77" x="88.63" y="15.36" width="1.16" height="52.65"/></g></g></g></g></g><g id="Rectangle_1603" data-name="Rectangle 1603"><g id="Group_4352" data-name="Group 4352"><g class="cls-78"><g id="Group_4351" data-name="Group 4351"><g id="Rectangle_2111" data-name="Rectangle 2111"><rect class="cls-79" x="71.52" y="12.07" width="0.44" height="59.23"/></g><g id="Rectangle_2112" data-name="Rectangle 2112"><rect class="cls-80" x="70.11" y="12.07" width="1.41" height="59.23"/></g><g id="Rectangle_2113" data-name="Rectangle 2113"><rect class="cls-81" x="68.71" y="12.07" width="1.41" height="59.23"/></g><g id="Rectangle_2114" data-name="Rectangle 2114"><rect class="cls-82" x="67.3" y="12.07" width="1.41" height="59.23"/></g><g id="Rectangle_2115" data-name="Rectangle 2115"><rect class="cls-83" x="66.47" y="12.07" width="0.83" height="59.23"/></g></g></g></g></g><g id="Rectangle_1604" data-name="Rectangle 1604"><g id="Group_4354" data-name="Group 4354"><g class="cls-84"><g id="Group_4353" data-name="Group 4353"><g id="Rectangle_2116" data-name="Rectangle 2116"><rect class="cls-85" x="49.04" y="8.78" width="0.76" height="65.82"/></g><g id="Rectangle_2117" data-name="Rectangle 2117"><rect class="cls-86" x="47.63" y="8.78" width="1.41" height="65.82"/></g><g id="Rectangle_2118" data-name="Rectangle 2118"><rect class="cls-87" x="46.22" y="8.78" width="1.41" height="65.82"/></g><g id="Rectangle_2119" data-name="Rectangle 2119"><rect class="cls-88" x="44.82" y="8.78" width="1.41" height="65.82"/></g><g id="Rectangle_2120" data-name="Rectangle 2120"><rect class="cls-89" x="44.31" y="8.78" width="0.5" height="65.82"/></g></g></g></g></g><g id="Rectangle_1605" data-name="Rectangle 1605"><g id="Group_4356" data-name="Group 4356"><g class="cls-90"><g id="Group_4355" data-name="Group 4355"><g id="Rectangle_2121" data-name="Rectangle 2121"><rect class="cls-91" x="26.55" y="5.48" width="1.09" height="72.4"/></g><g id="Rectangle_2122" data-name="Rectangle 2122"><rect class="cls-92" x="25.14" y="5.48" width="1.41" height="72.4"/></g><g id="Rectangle_2123" data-name="Rectangle 2123"><rect class="cls-93" x="23.74" y="5.48" width="1.41" height="72.4"/></g><g id="Rectangle_2124" data-name="Rectangle 2124"><rect class="cls-94" x="22.33" y="5.48" width="1.41" height="72.4"/></g><g id="Rectangle_2125" data-name="Rectangle 2125"><rect class="cls-95" x="22.16" y="5.48" width="0.17" height="72.4"/></g></g></g></g></g><g id="Rectangle_1606" data-name="Rectangle 1606"><g id="Group_4358" data-name="Group 4358"><g class="cls-96"><g id="Group_4357" data-name="Group 4357"><g id="Rectangle_2126" data-name="Rectangle 2126"><rect class="cls-97" x="5.47" width="0.01" height="83.37"/></g><g id="Rectangle_2127" data-name="Rectangle 2127"><rect class="cls-98" x="4.07" width="1.41" height="83.37"/></g><g id="Rectangle_2128" data-name="Rectangle 2128"><rect class="cls-99" x="2.66" width="1.41" height="83.37"/></g><g id="Rectangle_2129" data-name="Rectangle 2129"><rect class="cls-99" width="2.66" height="83.37"/></g></g></g></g></g></g></g></svg>