<svg xmlns="http://www.w3.org/2000/svg" xmlns:xlink="http://www.w3.org/1999/xlink" viewBox="0 0 64 64"><defs><style>.cls-1{fill:none;}.cls-2{clip-path:url(#clip-path);}.cls-3{fill:#00cff5;}.cls-4{fill:#01cef5;}.cls-5{fill:#02cdf5;}.cls-6{fill:#03ccf5;}.cls-7{fill:#04cbf5;}.cls-8{fill:#05caf5;}.cls-9{fill:#05c9f5;}.cls-10{fill:#06c8f5;}.cls-11{fill:#07c7f5;}.cls-12{fill:#08c6f5;}.cls-13{fill:#09c5f5;}.cls-14{fill:#0ac4f6;}.cls-15{fill:#0bc3f6;}.cls-16{fill:#0cc2f6;}.cls-17{fill:#0dc1f6;}.cls-18{fill:#0ec0f6;}.cls-19{fill:#0ebff6;}.cls-20{fill:#0fbef6;}.cls-21{fill:#10bdf6;}.cls-22{fill:#11bcf6;}.cls-23{fill:#12bbf6;}.cls-24{fill:#13baf6;}.cls-25{fill:#14b9f6;}.cls-26{fill:#15b8f6;}.cls-27{fill:#16b7f6;}.cls-28{fill:#17b6f6;}.cls-29{fill:#17b5f6;}.cls-30{fill:#18b4f6;}.cls-31{fill:#19b3f6;}.cls-32{fill:#1ab2f6;}.cls-33{fill:#1bb1f6;}.cls-34{fill:#1cb0f7;}.cls-35{fill:#1daff7;}.cls-36{fill:#1eaef7;}.cls-37{fill:#1fadf7;}.cls-38{fill:#20acf7;}.cls-39{fill:#21abf7;}.cls-40{fill:#21aaf7;}.cls-41{fill:#22a9f7;}.cls-42{fill:#23a8f7;}.cls-43{fill:#24a7f7;}.cls-44{fill:#25a6f7;}.cls-45{fill:#26a5f7;}.cls-46{fill:#27a4f7;}.cls-47{fill:#28a3f7;}.cls-48{fill:#29a2f7;}.cls-49{fill:#2aa1f7;}.cls-50{fill:#2aa0f7;}.cls-51{fill:#2b9ff7;}.cls-52{fill:#2c9ef7;}.cls-53{fill:#2d9df7;}.cls-54{fill:#2e9cf7;}.cls-55{fill:#2f9bf8;}.cls-56{fill:#309af8;}.cls-57{fill:#3199f8;}.cls-58{fill:#3298f8;}.cls-59{fill:#3397f8;}.cls-60{fill:#3396f8;}.cls-61{fill:#3495f8;}.cls-62{fill:#3594f8;}.cls-63{fill:#3693f8;}.cls-64{fill:#3792f8;}.cls-65{fill:#3891f8;}.cls-66{fill:#3990f8;}.cls-67{fill:#3a8ff8;}.cls-68{fill:#3b8ef8;}.cls-69{fill:#3c8df8;}.cls-70{fill:#3c8cf8;}.cls-71{fill:#3d8bf8;}.cls-72{fill:#3e8af8;}.cls-73{fill:#3f89f8;}.cls-74{fill:#4088f8;}.cls-75{fill:#4187f8;}.cls-76{fill:#4286f9;}.cls-77{fill:#4385f9;}.cls-78{fill:#4484f9;}.cls-79{fill:#4583f9;}.cls-80{fill:#4682f9;}.cls-81{fill:#4681f9;}.cls-82{fill:#4780f9;}.cls-83{fill:#487ff9;}.cls-84{fill:#497ef9;}.cls-85{fill:#4a7df9;}.cls-86{fill:#4b7cf9;}.cls-87{fill:#4c7bf9;}.cls-88{fill:#4d7af9;}.cls-89{fill:#4e79f9;}.cls-90{fill:#4f78f9;}.cls-91{fill:#4f77f9;}.cls-92{fill:#5076f9;}.cls-93{fill:#5175f9;}.cls-94{fill:#5274f9;}.cls-95{fill:#5373f9;}.cls-96{fill:#5472fa;}.cls-97{fill:#5571fa;}.cls-98{fill:#5670fa;}.cls-99{fill:#576ffa;}.cls-100{fill:#586efa;}.cls-101{fill:#586dfa;}.cls-102{fill:#596cfa;}.cls-103{fill:#5a6bfa;}.cls-104{fill:#5b6afa;}.cls-105{fill:#5c69fa;}.cls-106{fill:#5d68fa;}.cls-107{fill:#5e66fa;}.cls-108{fill:#5f65fa;}.cls-109{fill:#6064fa;}.cls-110{fill:#6163fa;}.cls-111{fill:#6262fa;}.cls-112{fill:#6261fa;}.cls-113{fill:#6360fa;}.cls-114{fill:#645ffa;}.cls-115{fill:#655efa;}.cls-116{fill:#665dfa;}.cls-117{fill:#675cfb;}.cls-118{fill:#685bfb;}.cls-119{fill:#695afb;}.cls-120{fill:#6a59fb;}.cls-121{fill:#6b58fb;}.cls-122{fill:#6b57fb;}.cls-123{fill:#6c56fb;}.cls-124{fill:#6d55fb;}.cls-125{fill:#6e54fb;}.cls-126{fill:#6f53fb;}.cls-127{fill:#7052fb;}.cls-128{fill:#7151fb;}.cls-129{fill:#7250fb;}.cls-130{fill:#734ffb;}.cls-131{fill:#744efb;}.cls-132{fill:#744dfb;}.cls-133{fill:#754cfb;}.cls-134{fill:#764bfb;}.cls-135{fill:#774afb;}.cls-136{fill:#7849fb;}.cls-137{fill:#7948fc;}.cls-138{fill:#7a47fc;}.cls-139{fill:#7b46fc;}.cls-140{fill:#7c45fc;}.cls-141{fill:#7d44fc;}.cls-142{fill:#7e43fc;}.cls-143{fill:#7e42fc;}.cls-144{fill:#7f41fc;}.cls-145{fill:#8040fc;}.cls-146{fill:#813ffc;}.cls-147{fill:#823efc;}.cls-148{fill:#833dfc;}.cls-149{fill:#843cfc;}.cls-150{fill:#853bfc;}.cls-151{fill:#863afc;}.cls-152{fill:#8739fc;}.cls-153{fill:#8738fc;}.cls-154{fill:#8837fc;}.cls-155{fill:#8936fc;}.cls-156{fill:#8a35fc;}.cls-157{fill:#8b34fc;}.cls-158{fill:#8c33fd;}.cls-159{fill:#8d32fd;}.cls-160{fill:#8e31fd;}.cls-161{fill:#8f30fd;}.cls-162{fill:#902ffd;}.cls-163{fill:#902efd;}.cls-164{fill:#912dfd;}.cls-165{fill:#922cfd;}.cls-166{fill:#932bfd;}.cls-167{fill:#942afd;}.cls-168{fill:#9529fd;}.cls-169{fill:#9628fd;}.cls-170{fill:#9727fd;}.cls-171{fill:#9826fd;}.cls-172{fill:#9925fd;}.cls-173{fill:#9924fd;}.cls-174{fill:#9a23fd;}.cls-175{fill:#9b22fd;}.cls-176{fill:#9c21fd;}.cls-177{fill:#9d20fd;}.cls-178{fill:#9e1ffd;}.cls-179{fill:#9f1efe;}.cls-180{fill:#a01dfe;}.cls-181{fill:#a11cfe;}.cls-182{fill:#a21bfe;}.cls-183{fill:#a31afe;}.cls-184{fill:#a319fe;}.cls-185{fill:#a418fe;}.cls-186{fill:#a517fe;}.cls-187{fill:#a616fe;}.cls-188{fill:#a715fe;}.cls-189{fill:#a814fe;}.cls-190{fill:#a913fe;}.cls-191{fill:#aa12fe;}.cls-192{fill:#ab11fe;}.cls-193{fill:#ac10fe;}.cls-194{fill:#ac0ffe;}.cls-195{fill:#ad0efe;}.cls-196{fill:#ae0dfe;}.cls-197{fill:#af0cfe;}.cls-198{fill:#b00bfe;}.cls-199{fill:#b10aff;}.cls-200{fill:#b209ff;}.cls-201{fill:#b308ff;}.cls-202{fill:#b407ff;}.cls-203{fill:#b506ff;}.cls-204{fill:#b505ff;}.cls-205{fill:#b604ff;}.cls-206{fill:#b703ff;}.cls-207{fill:#b802ff;}.cls-208{fill:#b901ff;}.cls-209{fill:#ba00ff;}.cls-210{fill:#fff;}</style><clipPath id="clip-path" transform="translate(0 0)"><circle class="cls-1" cx="32" cy="32" r="32"/></clipPath></defs><g id="Layer_2" data-name="Layer 2"><g id="Layer_1-2" data-name="Layer 1"><g id="Ellipse_23-2" data-name="Ellipse 23-2"><g class="cls-2"><polygon class="cls-3" points="18.36 0 0 15.09 0 0 18.36 0"/><polygon class="cls-3" points="18.86 0 0 15.5 0 15.09 18.36 0 18.86 0"/><polygon class="cls-4" points="19.36 0 0 15.91 0 15.5 18.86 0 19.36 0"/><polygon class="cls-5" points="19.85 0 0 16.32 0 15.91 19.36 0 19.85 0"/><polygon class="cls-6" points="20.35 0 0 16.72 0 16.32 19.85 0 20.35 0"/><polygon class="cls-7" points="20.84 0 0 17.13 0 16.72 20.35 0 20.84 0"/><polygon class="cls-8" points="21.34 0 0 17.54 0 17.13 20.84 0 21.34 0"/><polygon class="cls-9" points="21.83 0 0 17.94 0 17.54 21.34 0 21.83 0"/><polygon class="cls-10" points="22.33 0 0 18.35 0 17.94 21.83 0 22.33 0"/><polygon class="cls-11" points="22.82 0 0 18.76 0 18.35 22.33 0 22.82 0"/><polygon class="cls-12" points="23.32 0 0 19.16 0 18.76 22.82 0 23.32 0"/><polygon class="cls-13" points="23.81 0 0 19.57 0 19.16 23.32 0 23.81 0"/><polygon class="cls-14" points="24.31 0 0 19.98 0 19.57 23.81 0 24.31 0"/><polygon class="cls-15" points="24.8 0 0 20.39 0 19.98 24.31 0 24.8 0"/><polygon class="cls-16" points="25.3 0 0 20.79 0 20.39 24.8 0 25.3 0"/><polygon class="cls-17" points="25.8 0 0 21.2 0 20.79 25.3 0 25.8 0"/><polygon class="cls-18" points="26.29 0 0 21.61 0 21.2 25.8 0 26.29 0"/><polygon class="cls-19" points="26.79 0 0 22.02 0 21.61 26.29 0 26.79 0"/><polygon class="cls-20" points="27.28 0 0 22.42 0 22.02 26.79 0 27.28 0"/><polygon class="cls-21" points="27.78 0 0 22.83 0 22.42 27.28 0 27.78 0"/><polygon class="cls-22" points="28.27 0 0 23.24 0 22.83 27.78 0 28.27 0"/><polygon class="cls-23" points="28.77 0 0 23.64 0 23.24 28.27 0 28.77 0"/><polygon class="cls-24" points="29.26 0 0 24.05 0 23.64 28.77 0 29.26 0"/><polygon class="cls-25" points="29.76 0 0 24.46 0 24.05 29.26 0 29.76 0"/><polygon class="cls-26" points="30.25 0 0 24.86 0 24.46 29.76 0 30.25 0"/><polygon class="cls-27" points="30.75 0 0 25.27 0 24.86 30.25 0 30.75 0"/><polygon class="cls-28" points="31.25 0 0 25.68 0 25.27 30.75 0 31.25 0"/><polygon class="cls-29" points="31.74 0 0 26.09 0 25.68 31.25 0 31.74 0"/><polygon class="cls-30" points="32.24 0 0 26.49 0 26.09 31.74 0 32.24 0"/><polygon class="cls-31" points="32.73 0 0 26.9 0 26.49 32.24 0 32.73 0"/><polygon class="cls-32" points="33.23 0 0 27.31 0 26.9 32.73 0 33.23 0"/><polygon class="cls-33" points="33.72 0 0 27.71 0 27.31 33.23 0 33.72 0"/><polygon class="cls-34" points="34.22 0 0 28.12 0 27.71 33.72 0 34.22 0"/><polygon class="cls-35" points="34.71 0 0 28.53 0 28.12 34.22 0 34.71 0"/><polygon class="cls-36" points="35.21 0 0 28.94 0 28.53 34.71 0 35.21 0"/><polygon class="cls-37" points="35.7 0 0 29.34 0 28.94 35.21 0 35.7 0"/><polygon class="cls-38" points="36.2 0 0 29.75 0 29.34 35.7 0 36.2 0"/><polygon class="cls-39" points="36.69 0 0 30.16 0 29.75 36.2 0 36.69 0"/><polygon class="cls-40" points="37.19 0 0 30.57 0 30.16 36.69 0 37.19 0"/><polygon class="cls-41" points="37.69 0 0 30.97 0 30.57 37.19 0 37.69 0"/><polygon class="cls-42" points="38.18 0 0 31.38 0 30.97 37.69 0 38.18 0"/><polygon class="cls-43" points="38.68 0 0 31.79 0 31.38 38.18 0 38.68 0"/><polygon class="cls-44" points="39.17 0 0 32.19 0 31.79 38.68 0 39.17 0"/><polygon class="cls-45" points="39.67 0 0 32.6 0 32.19 39.17 0 39.67 0"/><polygon class="cls-46" points="40.16 0 0 33.01 0 32.6 39.67 0 40.16 0"/><polygon class="cls-47" points="40.66 0 0 33.42 0 33.01 40.16 0 40.66 0"/><polygon class="cls-48" points="41.15 0 0 33.82 0 33.42 40.66 0 41.15 0"/><polygon class="cls-49" points="41.65 0 0 34.23 0 33.82 41.15 0 41.65 0"/><polygon class="cls-50" points="42.14 0 0 34.64 0 34.23 41.65 0 42.14 0"/><polygon class="cls-51" points="42.64 0 0 35.04 0 34.64 42.14 0 42.64 0"/><polygon class="cls-52" points="43.13 0 0 35.45 0 35.04 42.64 0 43.13 0"/><polygon class="cls-53" points="43.63 0 0 35.86 0 35.45 43.13 0 43.63 0"/><polygon class="cls-54" points="44.13 0 0 36.27 0 35.86 43.63 0 44.13 0"/><polygon class="cls-55" points="44.62 0 0 36.67 0 36.27 44.13 0 44.62 0"/><polygon class="cls-56" points="45.12 0 0 37.08 0 36.67 44.62 0 45.12 0"/><polygon class="cls-57" points="45.61 0 0 37.49 0 37.08 45.12 0 45.61 0"/><polygon class="cls-58" points="46.11 0 0 37.9 0 37.49 45.61 0 46.11 0"/><polygon class="cls-59" points="46.6 0 0 38.3 0 37.9 46.11 0 46.6 0"/><polygon class="cls-60" points="47.1 0 0 38.71 0 38.3 46.6 0 47.1 0"/><polygon class="cls-61" points="47.59 0 0 39.12 0 38.71 47.1 0 47.59 0"/><polygon class="cls-62" points="48.09 0 0 39.52 0 39.12 47.59 0 48.09 0"/><polygon class="cls-63" points="48.58 0 0 39.93 0 39.52 48.09 0 48.58 0"/><polygon class="cls-64" points="49.08 0 0 40.34 0 39.93 48.58 0 49.08 0"/><polygon class="cls-65" points="49.58 0 0 40.74 0 40.34 49.08 0 49.58 0"/><polygon class="cls-66" points="50.07 0 0 41.15 0 40.74 49.58 0 50.07 0"/><polygon class="cls-67" points="50.57 0 0 41.56 0 41.15 50.07 0 50.57 0"/><polygon class="cls-68" points="51.06 0 0 41.97 0 41.56 50.57 0 51.06 0"/><polygon class="cls-69" points="51.56 0 0 42.37 0 41.97 51.06 0 51.56 0"/><polygon class="cls-70" points="52.05 0 0 42.78 0 42.37 51.56 0 52.05 0"/><polygon class="cls-71" points="52.55 0 0 43.19 0 42.78 52.05 0 52.55 0"/><polygon class="cls-72" points="53.04 0 0 43.59 0 43.19 52.55 0 53.04 0"/><polygon class="cls-73" points="53.54 0 0 44 0 43.59 53.04 0 53.54 0"/><polygon class="cls-74" points="54.03 0 0 44.41 0 44 53.54 0 54.03 0"/><polygon class="cls-75" points="54.53 0 0 44.82 0 44.41 54.03 0 54.53 0"/><polygon class="cls-76" points="55.02 0 0 45.22 0 44.82 54.53 0 55.02 0"/><polygon class="cls-77" points="55.52 0 0 45.63 0 45.22 55.02 0 55.52 0"/><polygon class="cls-78" points="56.02 0 0 46.04 0 45.63 55.52 0 56.02 0"/><polygon class="cls-79" points="56.51 0 0 46.45 0 46.04 56.02 0 56.51 0"/><polygon class="cls-80" points="57.01 0 0 46.85 0 46.45 56.51 0 57.01 0"/><polygon class="cls-81" points="57.5 0 0 47.26 0 46.85 57.01 0 57.5 0"/><polygon class="cls-82" points="58 0 0 47.67 0 47.26 57.5 0 58 0"/><polygon class="cls-83" points="58.49 0 0 48.07 0 47.67 58 0 58.49 0"/><polygon class="cls-84" points="58.99 0 0 48.48 0 48.07 58.49 0 58.99 0"/><polygon class="cls-85" points="59.48 0 0 48.89 0 48.48 58.99 0 59.48 0"/><polygon class="cls-86" points="59.98 0 0 49.3 0 48.89 59.48 0 59.98 0"/><polygon class="cls-87" points="60.47 0 0 49.7 0 49.3 59.98 0 60.47 0"/><polygon class="cls-88" points="60.97 0 0 50.11 0 49.7 60.47 0 60.97 0"/><polygon class="cls-89" points="61.47 0 0 50.52 0 50.11 60.97 0 61.47 0"/><polygon class="cls-90" points="61.96 0 0 50.92 0 50.52 61.47 0 61.96 0"/><polygon class="cls-91" points="62.45 0 0 51.33 0 50.92 61.96 0 62.45 0"/><polygon class="cls-92" points="62.95 0 0 51.74 0 51.33 62.45 0 62.95 0"/><polygon class="cls-93" points="63.45 0 0 52.15 0 51.74 62.95 0 63.45 0"/><polygon class="cls-94" points="63.94 0 0 52.55 0 52.15 63.45 0 63.94 0"/><polygon class="cls-95" points="64 0.36 0 52.96 0 52.55 63.94 0 64 0 64 0.36"/><polygon class="cls-96" points="64 0.77 0 53.37 0 52.96 64 0.36 64 0.77"/><polygon class="cls-97" points="64 1.17 0 53.77 0 53.37 64 0.77 64 1.17"/><polygon class="cls-98" points="64 1.58 0 54.18 0 53.77 64 1.17 64 1.58"/><polygon class="cls-99" points="64 1.99 0 54.59 0 54.18 64 1.58 64 1.99"/><polygon class="cls-100" points="64 2.4 0 55 0 54.59 64 1.99 64 2.4"/><polygon class="cls-101" points="64 2.8 0 55.4 0 55 64 2.4 64 2.8"/><polygon class="cls-102" points="64 3.21 0 55.81 0 55.4 64 2.8 64 3.21"/><polygon class="cls-103" points="64 3.62 0 56.22 0 55.81 64 3.21 64 3.62"/><polygon class="cls-104" points="64 4.02 0 56.62 0 56.22 64 3.62 64 4.02"/><polygon class="cls-105" points="64 4.43 0 57.03 0 56.62 64 4.02 64 4.43"/><polygon class="cls-106" points="64 4.84 0 57.44 0 57.03 64 4.43 64 4.84"/><polygon class="cls-107" points="64 5.25 0 57.85 0 57.44 64 4.84 64 5.25"/><polygon class="cls-108" points="64 5.65 0 58.25 0 57.85 64 5.25 64 5.65"/><polygon class="cls-109" points="64 6.06 0 58.66 0 58.25 64 5.65 64 6.06"/><polygon class="cls-110" points="64 6.47 0 59.07 0 58.66 64 6.06 64 6.47"/><polygon class="cls-111" points="64 6.87 0 59.47 0 59.07 64 6.47 64 6.87"/><polygon class="cls-112" points="64 7.28 0 59.88 0 59.47 64 6.87 64 7.28"/><polygon class="cls-113" points="64 7.69 0 60.29 0 59.88 64 7.28 64 7.69"/><polygon class="cls-114" points="64 8.1 0 60.7 0 60.29 64 7.69 64 8.1"/><polygon class="cls-115" points="64 8.5 0 61.1 0 60.7 64 8.1 64 8.5"/><polygon class="cls-116" points="64 8.91 0 61.51 0 61.1 64 8.5 64 8.91"/><polygon class="cls-117" points="64 9.32 0 61.92 0 61.51 64 8.91 64 9.32"/><polygon class="cls-118" points="64 9.72 0 62.33 0 61.92 64 9.32 64 9.72"/><polygon class="cls-119" points="64 10.13 0 62.73 0 62.33 64 9.72 64 10.13"/><polygon class="cls-120" points="64 10.54 0 63.14 0 62.73 64 10.13 64 10.54"/><polygon class="cls-121" points="64 10.95 0 63.55 0 63.14 64 10.54 64 10.95"/><polygon class="cls-122" points="64 11.35 0 63.95 0 63.55 64 10.95 64 11.35"/><polygon class="cls-123" points="64 11.76 0.44 64 0 64 0 63.95 64 11.35 64 11.76"/><polygon class="cls-124" points="64 12.17 0.93 64 0.44 64 64 11.76 64 12.17"/><polygon class="cls-125" points="64 12.57 1.43 64 0.93 64 64 12.17 64 12.57"/><polygon class="cls-126" points="64 12.98 1.93 64 1.43 64 64 12.57 64 12.98"/><polygon class="cls-127" points="64 13.39 2.42 64 1.93 64 64 12.98 64 13.39"/><polygon class="cls-128" points="64 13.8 2.92 64 2.42 64 64 13.39 64 13.8"/><polygon class="cls-129" points="64 14.2 3.41 64 2.92 64 64 13.8 64 14.2"/><polygon class="cls-130" points="64 14.61 3.91 64 3.41 64 64 14.2 64 14.61"/><polygon class="cls-131" points="64 15.02 4.4 64 3.91 64 64 14.61 64 15.02"/><polygon class="cls-132" points="64 15.43 4.9 64 4.4 64 64 15.02 64 15.43"/><polygon class="cls-133" points="64 15.83 5.39 64 4.9 64 64 15.43 64 15.83"/><polygon class="cls-134" points="64 16.24 5.89 64 5.39 64 64 15.83 64 16.24"/><polygon class="cls-135" points="64 16.65 6.38 64 5.89 64 64 16.24 64 16.65"/><polygon class="cls-136" points="64 17.05 6.88 64 6.38 64 64 16.65 64 17.05"/><polygon class="cls-137" points="64 17.46 7.37 64 6.88 64 64 17.05 64 17.46"/><polygon class="cls-138" points="64 17.87 7.87 64 7.37 64 64 17.46 64 17.87"/><polygon class="cls-139" points="64 18.27 8.37 64 7.87 64 64 17.87 64 18.27"/><polygon class="cls-140" points="64 18.68 8.86 64 8.37 64 64 18.27 64 18.68"/><polygon class="cls-141" points="64 19.09 9.36 64 8.86 64 64 18.68 64 19.09"/><polygon class="cls-142" points="64 19.5 9.85 64 9.36 64 64 19.09 64 19.5"/><polygon class="cls-143" points="64 19.9 10.35 64 9.85 64 64 19.5 64 19.9"/><polygon class="cls-144" points="64 20.31 10.84 64 10.35 64 64 19.9 64 20.31"/><polygon class="cls-145" points="64 20.72 11.34 64 10.84 64 64 20.31 64 20.72"/><polygon class="cls-146" points="64 21.13 11.83 64 11.34 64 64 20.72 64 21.13"/><polygon class="cls-147" points="64 21.53 12.33 64 11.83 64 64 21.13 64 21.53"/><polygon class="cls-148" points="64 21.94 12.82 64 12.33 64 64 21.53 64 21.94"/><polygon class="cls-149" points="64 22.35 13.32 64 12.82 64 64 21.94 64 22.35"/><polygon class="cls-150" points="64 22.75 13.81 64 13.32 64 64 22.35 64 22.75"/><polygon class="cls-151" points="64 23.16 14.31 64 13.81 64 64 22.75 64 23.16"/><polygon class="cls-152" points="64 23.57 14.81 64 14.31 64 64 23.16 64 23.57"/><polygon class="cls-153" points="64 23.98 15.3 64 14.81 64 64 23.57 64 23.98"/><polygon class="cls-154" points="64 24.38 15.8 64 15.3 64 64 23.98 64 24.38"/><polygon class="cls-155" points="64 24.79 16.29 64 15.8 64 64 24.38 64 24.79"/><polygon class="cls-156" points="64 25.2 16.79 64 16.29 64 64 24.79 64 25.2"/><polygon class="cls-157" points="64 25.6 17.28 64 16.79 64 64 25.2 64 25.6"/><polygon class="cls-158" points="64 26.01 17.78 64 17.28 64 64 25.6 64 26.01"/><polygon class="cls-159" points="64 26.42 18.27 64 17.78 64 64 26.01 64 26.42"/><polygon class="cls-160" points="64 26.82 18.77 64 18.27 64 64 26.42 64 26.82"/><polygon class="cls-161" points="64 27.23 19.26 64 18.77 64 64 26.82 64 27.23"/><polygon class="cls-162" points="64 27.64 19.76 64 19.26 64 64 27.23 64 27.64"/><polygon class="cls-163" points="64 28.05 20.25 64 19.76 64 64 27.64 64 28.05"/><polygon class="cls-164" points="64 28.45 20.75 64 20.25 64 64 28.05 64 28.45"/><polygon class="cls-165" points="64 28.86 21.25 64 20.75 64 64 28.45 64 28.86"/><polygon class="cls-166" points="64 29.27 21.74 64 21.25 64 64 28.86 64 29.27"/><polygon class="cls-167" points="64 29.68 22.24 64 21.74 64 64 29.27 64 29.68"/><polygon class="cls-168" points="64 30.08 22.73 64 22.24 64 64 29.68 64 30.08"/><polygon class="cls-169" points="64 30.49 23.23 64 22.73 64 64 30.08 64 30.49"/><polygon class="cls-170" points="64 30.9 23.72 64 23.23 64 64 30.49 64 30.9"/><polygon class="cls-171" points="64 31.3 24.22 64 23.72 64 64 30.9 64 31.3"/><polygon class="cls-172" points="64 31.71 24.71 64 24.22 64 64 31.3 64 31.71"/><polygon class="cls-173" points="64 32.12 25.21 64 24.71 64 64 31.71 64 32.12"/><polygon class="cls-174" points="64 32.53 25.7 64 25.21 64 64 32.12 64 32.53"/><polygon class="cls-175" points="64 32.93 26.2 64 25.7 64 64 32.53 64 32.93"/><polygon class="cls-176" points="64 33.34 26.7 64 26.2 64 64 32.93 64 33.34"/><polygon class="cls-177" points="64 33.75 27.19 64 26.7 64 64 33.34 64 33.75"/><polygon class="cls-178" points="64 34.15 27.69 64 27.19 64 64 33.75 64 34.15"/><polygon class="cls-179" points="64 34.56 28.18 64 27.69 64 64 34.15 64 34.56"/><polygon class="cls-180" points="64 34.97 28.68 64 28.18 64 64 34.56 64 34.97"/><polygon class="cls-181" points="64 35.38 29.17 64 28.68 64 64 34.97 64 35.38"/><polygon class="cls-182" points="64 35.78 29.67 64 29.17 64 64 35.38 64 35.78"/><polygon class="cls-183" points="64 36.19 30.16 64 29.67 64 64 35.78 64 36.19"/><polygon class="cls-184" points="64 36.6 30.66 64 30.16 64 64 36.19 64 36.6"/><polygon class="cls-185" points="64 37 31.15 64 30.66 64 64 36.6 64 37"/><polygon class="cls-186" points="64 37.41 31.65 64 31.15 64 64 37 64 37.41"/><polygon class="cls-187" points="64 37.82 32.15 64 31.65 64 64 37.41 64 37.82"/><polygon class="cls-188" points="64 38.23 32.64 64 32.15 64 64 37.82 64 38.23"/><polygon class="cls-189" points="64 38.63 33.14 64 32.64 64 64 38.23 64 38.63"/><polygon class="cls-190" points="64 39.04 33.63 64 33.14 64 64 38.63 64 39.04"/><polygon class="cls-191" points="64 39.45 34.13 64 33.63 64 64 39.04 64 39.45"/><polygon class="cls-192" points="64 39.85 34.62 64 34.13 64 64 39.45 64 39.85"/><polygon class="cls-193" points="64 40.26 35.12 64 34.62 64 64 39.85 64 40.26"/><polygon class="cls-194" points="64 40.67 35.61 64 35.12 64 64 40.26 64 40.67"/><polygon class="cls-195" points="64 41.08 36.11 64 35.61 64 64 40.67 64 41.08"/><polygon class="cls-196" points="64 41.48 36.6 64 36.11 64 64 41.08 64 41.48"/><polygon class="cls-197" points="64 41.89 37.1 64 36.6 64 64 41.48 64 41.89"/><polygon class="cls-198" points="64 42.3 37.59 64 37.1 64 64 41.89 64 42.3"/><polygon class="cls-199" points="64 42.7 38.09 64 37.59 64 64 42.3 64 42.7"/><polygon class="cls-200" points="64 43.11 38.59 64 38.09 64 64 42.7 64 43.11"/><polygon class="cls-201" points="64 43.52 39.08 64 38.59 64 64 43.11 64 43.52"/><polygon class="cls-202" points="64 43.93 39.58 64 39.08 64 64 43.52 64 43.93"/><polygon class="cls-203" points="64 44.33 40.07 64 39.58 64 64 43.93 64 44.33"/><polygon class="cls-204" points="64 44.74 40.57 64 40.07 64 64 44.33 64 44.74"/><polygon class="cls-205" points="64 45.15 41.06 64 40.57 64 64 44.74 64 45.15"/><polygon class="cls-206" points="64 45.55 41.56 64 41.06 64 64 45.15 64 45.55"/><polygon class="cls-207" points="64 45.96 42.05 64 41.56 64 64 45.55 64 45.96"/><polygon class="cls-208" points="64 46.37 42.55 64 42.05 64 64 45.96 64 46.37"/><polygon class="cls-209" points="64 46.78 43.04 64 42.55 64 64 46.37 64 46.78"/><polygon class="cls-209" points="43.04 64 64 46.78 64 64 43.04 64"/></g></g><g id="Ellipse_24" data-name="Ellipse 24"><ellipse class="cls-210" cx="32" cy="33" rx="17.55" ry="17"/></g></g></g></svg>