<svg xmlns="http://www.w3.org/2000/svg" xmlns:xlink="http://www.w3.org/1999/xlink" viewBox="0 0 360 83.85"><defs><style>.cls-1{fill:none;}.cls-2{clip-path:url(#clip-path);}.cls-3{fill:#0ec213;}.cls-4{fill:#0fc214;}.cls-5{fill:#0fc115;}.cls-6{fill:#10c116;}.cls-7{fill:#11c017;}.cls-8{fill:#11c018;}.cls-9{clip-path:url(#clip-path-2);}.cls-10{fill:#1cba27;}.cls-11{fill:#1cba28;}.cls-12{fill:#1db929;}.cls-13{fill:#1eb92a;}.cls-14{fill:#1eb92b;}.cls-15{fill:#1fb82c;}.cls-16{clip-path:url(#clip-path-3);}.cls-17{fill:#29b33b;}.cls-18{fill:#2ab23c;}.cls-19{fill:#2bb23d;}.cls-20{fill:#2bb13e;}.cls-21{fill:#2cb13f;}.cls-22{fill:#2db140;}.cls-23{clip-path:url(#clip-path-4);}.cls-24{fill:#36ab4e;}.cls-25{fill:#37ab4f;}.cls-26{fill:#38aa50;}.cls-27{fill:#38aa51;}.cls-28{fill:#39aa52;}.cls-29{fill:#3aa953;}.cls-30{clip-path:url(#clip-path-5);}.cls-31{fill:#44a362;}.cls-32{fill:#45a364;}.cls-33{fill:#45a365;}.cls-34{fill:#46a266;}.cls-35{fill:#47a267;}.cls-36{fill:#47a168;}.cls-37{clip-path:url(#clip-path-6);}.cls-38{fill:#519c77;}.cls-39{fill:#529b78;}.cls-40{fill:#539b79;}.cls-41{fill:#539a7a;}.cls-42{fill:#549a7b;}.cls-43{fill:#559a7c;}.cls-44{clip-path:url(#clip-path-7);}.cls-45{fill:#5e948a;}.cls-46{fill:#5f948b;}.cls-47{fill:#60948c;}.cls-48{fill:#60938d;}.cls-49{fill:#61938e;}.cls-50{fill:#62928f;}.cls-51{clip-path:url(#clip-path-8);}.cls-52{fill:#6c8d9e;}.cls-53{fill:#6d8c9f;}.cls-54{fill:#6d8ca0;}.cls-55{fill:#6e8ba1;}.cls-56{fill:#6f8ba2;}.cls-57{fill:#6f8ba3;}.cls-58{clip-path:url(#clip-path-9);}.cls-59{fill:#7a85b2;}.cls-60{fill:#7a84b3;}.cls-61{fill:#7b84b4;}.cls-62{fill:#7c83b3;}.cls-63{clip-path:url(#clip-path-10);}.cls-64{fill:#897da8;}.cls-65{fill:#8a7ca7;}.cls-66{fill:#8b7ca6;}.cls-67{fill:#8c7ba5;}.cls-68{fill:#8d7ba4;}.cls-69{clip-path:url(#clip-path-11);}.cls-70{fill:#99759a;}.cls-71{fill:#9a7499;}.cls-72{fill:#9b7498;}.cls-73{fill:#9c7398;}.cls-74{fill:#9d7397;}.cls-75{clip-path:url(#clip-path-12);}.cls-76{fill:#aa6c8b;}.cls-77{fill:#ab6b8b;}.cls-78{fill:#ac6b8a;}.cls-79{fill:#ad6a89;}.cls-80{fill:#ae6a88;}.cls-81{clip-path:url(#clip-path-13);}.cls-82{fill:#ba647e;}.cls-83{fill:#bb637d;}.cls-84{fill:#bc637c;}.cls-85{fill:#be627b;}.cls-86{fill:#bf627a;}.cls-87{clip-path:url(#clip-path-14);}.cls-88{fill:#cc5b6f;}.cls-89{fill:#cd5b6e;}.cls-90{fill:#ce5a6d;}.cls-91{fill:#cf5a6c;}.cls-92{fill:#d0596c;}.cls-93{clip-path:url(#clip-path-15);}.cls-94{fill:#dc5361;}.cls-95{fill:#dd5260;}.cls-96{fill:#de525f;}.cls-97{fill:#df515f;}.cls-98{fill:#e0515e;}.cls-99{clip-path:url(#clip-path-16);}.cls-100{fill:#ed4a53;}.cls-101{fill:#ee4a52;}.cls-102{fill:#ef4951;}.cls-103{fill:#f04950;}.cls-104{fill:#f1484f;}.cls-105{clip-path:url(#clip-path-17);}.cls-106{fill:#fd4245;}.cls-107{fill:#fe4244;}.cls-108{fill:#ff4143;}</style><clipPath id="clip-path" transform="translate(0 0)"><rect class="cls-1" x="354.81" width="5.19" height="83.85" rx="2.16"/></clipPath><clipPath id="clip-path-2" transform="translate(0 0)"><rect class="cls-1" x="332.36" y="5.48" width="5.48" height="72.4" rx="2.16"/></clipPath><clipPath id="clip-path-3" transform="translate(0 0)"><rect class="cls-1" x="310.2" y="8.78" width="5.48" height="65.82" rx="2.16"/></clipPath><clipPath id="clip-path-4" transform="translate(0 0)"><rect class="cls-1" x="288.04" y="12.07" width="5.48" height="59.23" rx="2.16"/></clipPath><clipPath id="clip-path-5" transform="translate(0 0)"><rect class="cls-1" x="265.89" y="15.36" width="5.48" height="52.65" rx="2.16"/></clipPath><clipPath id="clip-path-6" transform="translate(0 0)"><rect class="cls-1" x="243.31" y="18.15" width="5.19" height="47.54" rx="2.16"/></clipPath><clipPath id="clip-path-7" transform="translate(0 0)"><rect class="cls-1" x="221.57" y="21.94" width="5.48" height="39.49" rx="2.16"/></clipPath><clipPath id="clip-path-8" transform="translate(0 0)"><rect class="cls-1" x="199.42" y="25.23" width="5.48" height="32.91" rx="2.16"/></clipPath><clipPath id="clip-path-9" transform="translate(0 0)"><rect class="cls-1" x="177.26" y="28.52" width="5.48" height="26.33" rx="2.16"/></clipPath><clipPath id="clip-path-10" transform="translate(0 0)"><rect class="cls-1" x="155.1" y="25.23" width="5.48" height="32.91" rx="2.16"/></clipPath><clipPath id="clip-path-11" transform="translate(0 0)"><rect class="cls-1" x="132.67" y="21.61" width="6.05" height="39.76" rx="2.16"/></clipPath><clipPath id="clip-path-12" transform="translate(0 0)"><rect class="cls-1" x="110.79" y="17.55" width="5.48" height="48.27" rx="2.16"/></clipPath><clipPath id="clip-path-13" transform="translate(0 0)"><rect class="cls-1" x="88.63" y="15.36" width="5.48" height="52.65" rx="2.16"/></clipPath><clipPath id="clip-path-14" transform="translate(0 0)"><rect class="cls-1" x="66.47" y="12.07" width="5.48" height="59.23" rx="2.16"/></clipPath><clipPath id="clip-path-15" transform="translate(0 0)"><rect class="cls-1" x="44.32" y="8.78" width="5.48" height="65.82" rx="2.16"/></clipPath><clipPath id="clip-path-16" transform="translate(0 0)"><rect class="cls-1" x="22.16" y="5.48" width="5.48" height="72.4" rx="2.16"/></clipPath><clipPath id="clip-path-17" transform="translate(0 0)"><rect class="cls-1" width="5.48" height="83.37" rx="2.16"/></clipPath></defs><g id="Layer_2" data-name="Layer 2"><g id="Layer_1-2" data-name="Layer 1"><g id="Rectangle_1590" data-name="Rectangle 1590"><g class="cls-2"><rect class="cls-3" x="359.87" width="0.13" height="83.85"/><rect class="cls-4" x="358.8" width="1.06" height="83.85"/><rect class="cls-5" x="357.74" width="1.06" height="83.85"/><rect class="cls-6" x="356.67" width="1.06" height="83.85"/><rect class="cls-7" x="355.61" width="1.06" height="83.85"/><rect class="cls-8" x="354.81" width="0.8" height="83.85"/></g></g><g id="Rectangle_1591" data-name="Rectangle 1591"><g class="cls-9"><rect class="cls-10" x="337.34" y="5.48" width="0.5" height="72.4"/><rect class="cls-11" x="336.21" y="5.48" width="1.13" height="72.4"/><rect class="cls-12" x="335.09" y="5.48" width="1.13" height="72.4"/><rect class="cls-13" x="333.96" y="5.48" width="1.13" height="72.4"/><rect class="cls-14" x="332.83" y="5.48" width="1.13" height="72.4"/><rect class="cls-15" x="332.36" y="5.48" width="0.48" height="72.4"/></g></g><g id="Rectangle_1592" data-name="Rectangle 1592"><g class="cls-16"><rect class="cls-17" x="314.82" y="8.78" width="0.87" height="65.82"/><rect class="cls-18" x="313.69" y="8.78" width="1.13" height="65.82"/><rect class="cls-19" x="312.56" y="8.78" width="1.13" height="65.82"/><rect class="cls-20" x="311.44" y="8.78" width="1.13" height="65.82"/><rect class="cls-21" x="310.31" y="8.78" width="1.13" height="65.82"/><rect class="cls-22" x="310.2" y="8.78" width="0.11" height="65.82"/></g></g><g id="Rectangle_1593" data-name="Rectangle 1593"><g class="cls-23"><rect class="cls-24" x="293.42" y="12.07" width="0.11" height="59.23"/><rect class="cls-25" x="292.29" y="12.07" width="1.13" height="59.23"/><rect class="cls-26" x="291.17" y="12.07" width="1.13" height="59.23"/><rect class="cls-27" x="290.04" y="12.07" width="1.13" height="59.23"/><rect class="cls-28" x="288.92" y="12.07" width="1.13" height="59.23"/><rect class="cls-29" x="288.04" y="12.07" width="0.87" height="59.23"/></g></g><g id="Rectangle_1594" data-name="Rectangle 1594"><g class="cls-30"><rect class="cls-31" x="270.89" y="15.36" width="0.48" height="52.65"/><rect class="cls-32" x="269.77" y="15.36" width="1.13" height="52.65"/><rect class="cls-33" x="268.64" y="15.36" width="1.13" height="52.65"/><rect class="cls-34" x="267.51" y="15.36" width="1.13" height="52.65"/><rect class="cls-35" x="266.39" y="15.36" width="1.13" height="52.65"/><rect class="cls-36" x="265.89" y="15.36" width="0.5" height="52.65"/></g></g><g id="Rectangle_1595" data-name="Rectangle 1595"><g class="cls-37"><rect class="cls-38" x="247.7" y="18.15" width="0.8" height="47.54"/><rect class="cls-39" x="246.63" y="18.15" width="1.06" height="47.54"/><rect class="cls-40" x="245.57" y="18.15" width="1.06" height="47.54"/><rect class="cls-41" x="244.5" y="18.15" width="1.06" height="47.54"/><rect class="cls-42" x="243.44" y="18.15" width="1.06" height="47.54"/><rect class="cls-43" x="243.31" y="18.15" width="0.13" height="47.54"/></g></g><g id="Rectangle_1596" data-name="Rectangle 1596"><g class="cls-44"><rect class="cls-45" x="226.97" y="21.94" width="0.08" height="39.49"/><rect class="cls-46" x="225.85" y="21.94" width="1.13" height="39.49"/><rect class="cls-47" x="224.72" y="21.94" width="1.13" height="39.49"/><rect class="cls-48" x="223.6" y="21.94" width="1.13" height="39.49"/><rect class="cls-49" x="222.47" y="21.94" width="1.13" height="39.49"/><rect class="cls-50" x="221.57" y="21.94" width="0.9" height="39.49"/></g></g><g id="Rectangle_1597" data-name="Rectangle 1597"><g class="cls-51"><rect class="cls-52" x="204.45" y="25.23" width="0.45" height="32.91"/><rect class="cls-53" x="203.33" y="25.23" width="1.13" height="32.91"/><rect class="cls-54" x="202.2" y="25.23" width="1.13" height="32.91"/><rect class="cls-55" x="201.07" y="25.23" width="1.13" height="32.91"/><rect class="cls-56" x="199.95" y="25.23" width="1.13" height="32.91"/><rect class="cls-57" x="199.42" y="25.23" width="0.53" height="32.91"/></g></g><g id="Rectangle_1598" data-name="Rectangle 1598"><g class="cls-58"><rect class="cls-59" x="181.93" y="28.52" width="0.81" height="26.33"/><rect class="cls-60" x="180.8" y="28.52" width="1.13" height="26.33"/><rect class="cls-61" x="179.68" y="28.52" width="1.13" height="26.33"/><rect class="cls-61" x="178.33" y="28.52" width="1.34" height="26.33"/><rect class="cls-62" x="177.26" y="28.52" width="1.08" height="26.33"/></g></g><g id="Rectangle_1599" data-name="Rectangle 1599"><g class="cls-63"><rect class="cls-64" x="159.56" y="25.23" width="1.03" height="32.91"/><rect class="cls-65" x="158.22" y="25.23" width="1.34" height="32.91"/><rect class="cls-66" x="156.88" y="25.23" width="1.34" height="32.91"/><rect class="cls-67" x="155.54" y="25.23" width="1.34" height="32.91"/><rect class="cls-68" x="155.1" y="25.23" width="0.44" height="32.91"/></g></g><g id="Rectangle_1600" data-name="Rectangle 1600"><g class="cls-69"><rect class="cls-70" x="138.36" y="21.61" width="0.36" height="39.76"/><rect class="cls-71" x="136.88" y="21.61" width="1.48" height="39.76"/><rect class="cls-72" x="135.4" y="21.61" width="1.48" height="39.76"/><rect class="cls-73" x="133.92" y="21.61" width="1.48" height="39.76"/><rect class="cls-74" x="132.67" y="21.61" width="1.25" height="39.76"/></g></g><g id="Rectangle_1601" data-name="Rectangle 1601"><g class="cls-75"><rect class="cls-76" x="115.31" y="17.55" width="0.97" height="48.27"/><rect class="cls-77" x="113.97" y="17.55" width="1.34" height="48.27"/><rect class="cls-78" x="112.62" y="17.55" width="1.34" height="48.27"/><rect class="cls-79" x="111.28" y="17.55" width="1.34" height="48.27"/><rect class="cls-80" x="110.79" y="17.55" width="0.5" height="48.27"/></g></g><g id="Rectangle_1602" data-name="Rectangle 1602"><g class="cls-81"><rect class="cls-82" x="93.85" y="15.36" width="0.26" height="52.65"/><rect class="cls-83" x="92.51" y="15.36" width="1.34" height="52.65"/><rect class="cls-84" x="91.17" y="15.36" width="1.34" height="52.65"/><rect class="cls-85" x="89.83" y="15.36" width="1.34" height="52.65"/><rect class="cls-86" x="88.63" y="15.36" width="1.2" height="52.65"/></g></g><g id="Rectangle_1603" data-name="Rectangle 1603"><g class="cls-87"><rect class="cls-88" x="71.05" y="12.07" width="0.9" height="59.23"/><rect class="cls-89" x="69.71" y="12.07" width="1.34" height="59.23"/><rect class="cls-90" x="68.37" y="12.07" width="1.34" height="59.23"/><rect class="cls-91" x="67.03" y="12.07" width="1.34" height="59.23"/><rect class="cls-92" x="66.47" y="12.07" width="0.56" height="59.23"/></g></g><g id="Rectangle_1604" data-name="Rectangle 1604"><g class="cls-93"><rect class="cls-94" x="49.6" y="8.78" width="0.2" height="65.82"/><rect class="cls-95" x="48.26" y="8.78" width="1.34" height="65.82"/><rect class="cls-96" x="46.92" y="8.78" width="1.34" height="65.82"/><rect class="cls-97" x="45.58" y="8.78" width="1.34" height="65.82"/><rect class="cls-98" x="44.32" y="8.78" width="1.26" height="65.82"/></g></g><g id="Rectangle_1605" data-name="Rectangle 1605"><g class="cls-99"><rect class="cls-100" x="26.8" y="5.48" width="0.84" height="72.4"/><rect class="cls-101" x="25.46" y="5.48" width="1.34" height="72.4"/><rect class="cls-102" x="24.12" y="5.48" width="1.34" height="72.4"/><rect class="cls-103" x="22.78" y="5.48" width="1.34" height="72.4"/><rect class="cls-104" x="22.16" y="5.48" width="0.62" height="72.4"/></g></g><g id="Rectangle_1606" data-name="Rectangle 1606"><g class="cls-105"><rect class="cls-106" x="5.34" width="0.14" height="83.37"/><rect class="cls-107" x="4" width="1.34" height="83.37"/><rect class="cls-108" x="2.66" width="1.34" height="83.37"/><rect class="cls-108" width="2.66" height="83.37"/></g></g></g></g></svg>