<svg xmlns="http://www.w3.org/2000/svg" xmlns:xlink="http://www.w3.org/1999/xlink" viewBox="0 0 360 83.37"><defs><style>.cls-1{fill:none;}.cls-2{clip-path:url(#clip-path);}.cls-3{fill:#004de9;}.cls-4{fill:#014de8;}.cls-5{fill:#024de7;}.cls-6{fill:#034de6;}.cls-7{fill:#044de5;}.cls-8{clip-path:url(#clip-path-2);}.cls-9{fill:#104cda;}.cls-10{fill:#114cd9;}.cls-11{fill:#124cd8;}.cls-12{fill:#134cd8;}.cls-13{fill:#144cd7;}.cls-14{clip-path:url(#clip-path-3);}.cls-15{fill:#204bcc;}.cls-16{fill:#214bcb;}.cls-17{fill:#224bca;}.cls-18{fill:#234bc9;}.cls-19{fill:#244bc8;}.cls-20{clip-path:url(#clip-path-4);}.cls-21{fill:#2f4abe;}.cls-22{fill:#304abd;}.cls-23{fill:#314abc;}.cls-24{fill:#324abb;}.cls-25{fill:#334aba;}.cls-26{clip-path:url(#clip-path-5);}.cls-27{fill:#4049af;}.cls-28{fill:#4149ae;}.cls-29{fill:#4249ad;}.cls-30{fill:#4349ac;}.cls-31{fill:#4449ab;}.cls-32{clip-path:url(#clip-path-6);}.cls-33{fill:#5049a0;}.cls-34{fill:#51489f;}.cls-35{fill:#52489f;}.cls-36{fill:#53489e;}.cls-37{fill:#54489d;}.cls-38{clip-path:url(#clip-path-7);}.cls-39{fill:#604892;}.cls-40{fill:#614891;}.cls-41{fill:#624890;}.cls-42{fill:#63478f;}.cls-43{fill:#64478e;}.cls-44{clip-path:url(#clip-path-8);}.cls-45{fill:#6f4784;}.cls-46{fill:#704783;}.cls-47{fill:#714782;}.cls-48{fill:#724781;}.cls-49{fill:#734780;}.cls-50{clip-path:url(#clip-path-9);}.cls-51{fill:#7e4676;}.cls-52{fill:#7f4676;}.cls-53{fill:#804675;}.cls-54{fill:#814675;}.cls-55{fill:#824674;}.cls-56{clip-path:url(#clip-path-10);}.cls-57{fill:#8e456c;}.cls-58{fill:#8f456c;}.cls-59{fill:#90456b;}.cls-60{fill:#91456b;}.cls-61{fill:#92456a;}.cls-62{clip-path:url(#clip-path-11);}.cls-63{fill:#9e4463;}.cls-64{fill:#9f4462;}.cls-65{fill:#a04461;}.cls-66{fill:#a14461;}.cls-67{fill:#a24460;}.cls-68{clip-path:url(#clip-path-12);}.cls-69{fill:#ae4359;}.cls-70{fill:#af4358;}.cls-71{fill:#b04357;}.cls-72{fill:#b14357;}.cls-73{fill:#b24356;}.cls-74{clip-path:url(#clip-path-13);}.cls-75{fill:#bf424f;}.cls-76{fill:#c0424e;}.cls-77{fill:#c1424d;}.cls-78{fill:#c2424d;}.cls-79{clip-path:url(#clip-path-14);}.cls-80{fill:#ce4145;}.cls-81{fill:#cf4145;}.cls-82{fill:#d04144;}.cls-83{fill:#d14144;}.cls-84{fill:#d24143;}.cls-85{clip-path:url(#clip-path-15);}.cls-86{fill:#de403b;}.cls-87{fill:#df403b;}.cls-88{fill:#e0403a;}.cls-89{fill:#e1403a;}.cls-90{fill:#e24039;}.cls-91{clip-path:url(#clip-path-16);}.cls-92{fill:#ee3f32;}.cls-93{fill:#ef3f31;}.cls-94{fill:#f03f30;}.cls-95{fill:#f13f30;}.cls-96{fill:#f23f2f;}.cls-97{clip-path:url(#clip-path-17);}.cls-98{fill:#fe3e28;}.cls-99{fill:#ff3e27;}</style><clipPath id="clip-path" transform="translate(0)"><path class="cls-1" d="M357.26,0h0a2.75,2.75,0,0,0-2.75,2.74V80.62a2.75,2.75,0,0,0,2.75,2.75h0A2.74,2.74,0,0,0,360,80.63h0V2.74A2.74,2.74,0,0,0,357.26,0Z"/></clipPath><clipPath id="clip-path-2" transform="translate(0)"><path class="cls-1" d="M335.1,5.48h0a2.74,2.74,0,0,0-2.74,2.75V75.14a2.73,2.73,0,0,0,2.74,2.74h0a2.74,2.74,0,0,0,2.74-2.74h0V8.23a2.75,2.75,0,0,0-2.74-2.75Z"/></clipPath><clipPath id="clip-path-3" transform="translate(0)"><path class="cls-1" d="M312.94,8.78h0a2.74,2.74,0,0,0-2.74,2.74V71.85a2.74,2.74,0,0,0,2.74,2.74h0a2.73,2.73,0,0,0,2.74-2.74h0V11.52a2.73,2.73,0,0,0-2.74-2.74Z"/></clipPath><clipPath id="clip-path-4" transform="translate(0)"><path class="cls-1" d="M290.79,12.07h0A2.74,2.74,0,0,0,288,14.81V68.56a2.75,2.75,0,0,0,2.75,2.74h0a2.74,2.74,0,0,0,2.74-2.74h0V14.81a2.74,2.74,0,0,0-2.74-2.74Z"/></clipPath><clipPath id="clip-path-5" transform="translate(0)"><path class="cls-1" d="M268.63,15.36h0a2.74,2.74,0,0,0-2.74,2.74V65.27A2.74,2.74,0,0,0,268.63,68h0a2.74,2.74,0,0,0,2.74-2.74h0V18.1a2.74,2.74,0,0,0-2.74-2.74Z"/></clipPath><clipPath id="clip-path-6" transform="translate(0)"><path class="cls-1" d="M246.47,17.55h0a2.74,2.74,0,0,0-2.74,2.74V63.08a2.74,2.74,0,0,0,2.74,2.74h0a2.74,2.74,0,0,0,2.74-2.74h0V20.29a2.74,2.74,0,0,0-2.74-2.74Z"/></clipPath><clipPath id="clip-path-7" transform="translate(0)"><path class="cls-1" d="M224.31,21.94h0a2.74,2.74,0,0,0-2.74,2.74v34a2.74,2.74,0,0,0,2.74,2.74h0a2.74,2.74,0,0,0,2.75-2.74h0v-34a2.74,2.74,0,0,0-2.74-2.74Z"/></clipPath><clipPath id="clip-path-8" transform="translate(0)"><path class="cls-1" d="M202.16,25.23h0A2.75,2.75,0,0,0,199.41,28V55.4a2.75,2.75,0,0,0,2.75,2.74h0a2.74,2.74,0,0,0,2.74-2.74h0V28a2.74,2.74,0,0,0-2.74-2.74Z"/></clipPath><clipPath id="clip-path-9" transform="translate(0)"><path class="cls-1" d="M180,28.52h0a2.74,2.74,0,0,0-2.74,2.74V52.11A2.74,2.74,0,0,0,180,54.85h0a2.74,2.74,0,0,0,2.74-2.74h0V31.26A2.74,2.74,0,0,0,180,28.52Z"/></clipPath><clipPath id="clip-path-10" transform="translate(0)"><path class="cls-1" d="M157.84,25.23h0A2.74,2.74,0,0,0,155.1,28V55.4a2.74,2.74,0,0,0,2.74,2.74h0a2.74,2.74,0,0,0,2.74-2.74h0V28a2.73,2.73,0,0,0-2.74-2.74Z"/></clipPath><clipPath id="clip-path-11" transform="translate(0)"><path class="cls-1" d="M135.69,21.94h0a2.75,2.75,0,0,0-2.75,2.74v34a2.74,2.74,0,0,0,2.74,2.74h0a2.74,2.74,0,0,0,2.74-2.74h0v-34a2.74,2.74,0,0,0-2.74-2.74Z"/></clipPath><clipPath id="clip-path-12" transform="translate(0)"><path class="cls-1" d="M113.53,17.55h0a2.74,2.74,0,0,0-2.74,2.74V63.08a2.74,2.74,0,0,0,2.74,2.74h0a2.74,2.74,0,0,0,2.74-2.74h0V20.29a2.74,2.74,0,0,0-2.74-2.74Z"/></clipPath><clipPath id="clip-path-13" transform="translate(0)"><path class="cls-1" d="M91.37,15.36h0a2.74,2.74,0,0,0-2.74,2.74V65.27A2.74,2.74,0,0,0,91.37,68h0a2.75,2.75,0,0,0,2.75-2.74h0V18.1a2.75,2.75,0,0,0-2.75-2.74Z"/></clipPath><clipPath id="clip-path-14" transform="translate(0)"><path class="cls-1" d="M69.21,12.07h0a2.74,2.74,0,0,0-2.74,2.74V68.56a2.74,2.74,0,0,0,2.74,2.74h0A2.74,2.74,0,0,0,72,68.56h0V14.81a2.74,2.74,0,0,0-2.74-2.74Z"/></clipPath><clipPath id="clip-path-15" transform="translate(0)"><path class="cls-1" d="M47.06,8.78h0a2.74,2.74,0,0,0-2.75,2.74V71.85a2.74,2.74,0,0,0,2.75,2.74h0a2.73,2.73,0,0,0,2.74-2.74h0V11.52a2.74,2.74,0,0,0-2.74-2.74Z"/></clipPath><clipPath id="clip-path-16" transform="translate(0)"><path class="cls-1" d="M24.9,5.48h0a2.75,2.75,0,0,0-2.74,2.75V75.14a2.74,2.74,0,0,0,2.74,2.74h0a2.74,2.74,0,0,0,2.74-2.74h0V8.23A2.75,2.75,0,0,0,24.9,5.48Z"/></clipPath><clipPath id="clip-path-17" transform="translate(0)"><path class="cls-1" d="M2.74,0h0A2.74,2.74,0,0,0,0,2.74V80.62a2.75,2.75,0,0,0,2.74,2.75h0a2.75,2.75,0,0,0,2.75-2.74h0V2.74A2.75,2.75,0,0,0,2.74,0Z"/></clipPath></defs><g id="Layer_2" data-name="Layer 2"><g id="Layer_1-2" data-name="Layer 1"><g id="Group_4123" data-name="Group 4123"><g id="Rectangle_1590" data-name="Rectangle 1590"><g id="Group_4360" data-name="Group 4360"><g class="cls-2"><g id="Group_4359" data-name="Group 4359"><g id="Rectangle_2130" data-name="Rectangle 2130"><rect class="cls-3" x="359.58" width="0.42" height="83.37"/></g><g id="Rectangle_2131" data-name="Rectangle 2131"><rect class="cls-4" x="358.17" width="1.41" height="83.37"/></g><g id="Rectangle_2132" data-name="Rectangle 2132"><rect class="cls-5" x="356.77" width="1.41" height="83.37"/></g><g id="Rectangle_2133" data-name="Rectangle 2133"><rect class="cls-6" x="355.36" width="1.41" height="83.37"/></g><g id="Rectangle_2134" data-name="Rectangle 2134"><rect class="cls-7" x="354.51" width="0.85" height="83.37"/></g></g></g></g></g><g id="Rectangle_1591" data-name="Rectangle 1591"><g id="Group_4362" data-name="Group 4362"><g class="cls-8"><g id="Group_4361" data-name="Group 4361"><g id="Rectangle_2135" data-name="Rectangle 2135"><rect class="cls-9" x="337.07" y="5.48" width="0.77" height="72.4"/></g><g id="Rectangle_2136" data-name="Rectangle 2136"><rect class="cls-10" x="335.67" y="5.48" width="1.41" height="72.4"/></g><g id="Rectangle_2137" data-name="Rectangle 2137"><rect class="cls-11" x="334.26" y="5.48" width="1.41" height="72.4"/></g><g id="Rectangle_2138" data-name="Rectangle 2138"><rect class="cls-12" x="332.85" y="5.48" width="1.41" height="72.4"/></g><g id="Rectangle_2139" data-name="Rectangle 2139"><rect class="cls-13" x="332.36" y="5.48" width="0.5" height="72.4"/></g></g></g></g></g><g id="Rectangle_1592" data-name="Rectangle 1592"><g id="Group_4364" data-name="Group 4364"><g class="cls-14"><g id="Group_4363" data-name="Group 4363"><g id="Rectangle_2140" data-name="Rectangle 2140"><rect class="cls-15" x="314.57" y="8.78" width="1.12" height="65.82"/></g><g id="Rectangle_2141" data-name="Rectangle 2141"><rect class="cls-16" x="313.16" y="8.78" width="1.41" height="65.82"/></g><g id="Rectangle_2142" data-name="Rectangle 2142"><rect class="cls-17" x="311.75" y="8.78" width="1.41" height="65.82"/></g><g id="Rectangle_2143" data-name="Rectangle 2143"><rect class="cls-18" x="310.35" y="8.78" width="1.41" height="65.82"/></g><g id="Rectangle_2144" data-name="Rectangle 2144"><rect class="cls-19" x="310.2" y="8.78" width="0.15" height="65.82"/></g></g></g></g></g><g id="Rectangle_1593" data-name="Rectangle 1593"><g id="Group_4366" data-name="Group 4366"><g class="cls-20"><g id="Group_4365" data-name="Group 4365"><g id="Rectangle_2145" data-name="Rectangle 2145"><rect class="cls-21" x="293.47" y="12.07" width="0.06" height="59.23"/></g><g id="Rectangle_2146" data-name="Rectangle 2146"><rect class="cls-22" x="292.06" y="12.07" width="1.41" height="59.23"/></g><g id="Rectangle_2147" data-name="Rectangle 2147"><rect class="cls-23" x="290.65" y="12.07" width="1.41" height="59.23"/></g><g id="Rectangle_2148" data-name="Rectangle 2148"><rect class="cls-24" x="289.25" y="12.07" width="1.41" height="59.23"/></g><g id="Rectangle_2149" data-name="Rectangle 2149"><rect class="cls-25" x="288.04" y="12.07" width="1.2" height="59.23"/></g></g></g></g></g><g id="Rectangle_1594" data-name="Rectangle 1594"><g id="Group_4368" data-name="Group 4368"><g class="cls-26"><g id="Group_4367" data-name="Group 4367"><g id="Rectangle_2150" data-name="Rectangle 2150"><rect class="cls-27" x="270.96" y="15.36" width="0.41" height="52.65"/></g><g id="Rectangle_2151" data-name="Rectangle 2151"><rect class="cls-28" x="269.55" y="15.36" width="1.41" height="52.65"/></g><g id="Rectangle_2152" data-name="Rectangle 2152"><rect class="cls-29" x="268.14" y="15.36" width="1.41" height="52.65"/></g><g id="Rectangle_2153" data-name="Rectangle 2153"><rect class="cls-30" x="266.74" y="15.36" width="1.41" height="52.65"/></g><g id="Rectangle_2154" data-name="Rectangle 2154"><rect class="cls-31" x="265.88" y="15.36" width="0.85" height="52.65"/></g></g></g></g></g><g id="Rectangle_1595" data-name="Rectangle 1595"><g id="Group_4370" data-name="Group 4370"><g class="cls-32"><g id="Group_4369" data-name="Group 4369"><g id="Rectangle_2155" data-name="Rectangle 2155"><rect class="cls-33" x="248.45" y="17.55" width="0.76" height="48.27"/></g><g id="Rectangle_2156" data-name="Rectangle 2156"><rect class="cls-34" x="247.04" y="17.55" width="1.41" height="48.27"/></g><g id="Rectangle_2157" data-name="Rectangle 2157"><rect class="cls-35" x="245.64" y="17.55" width="1.41" height="48.27"/></g><g id="Rectangle_2158" data-name="Rectangle 2158"><rect class="cls-36" x="244.23" y="17.55" width="1.41" height="48.27"/></g><g id="Rectangle_2159" data-name="Rectangle 2159"><rect class="cls-37" x="243.73" y="17.55" width="0.5" height="48.27"/></g></g></g></g></g><g id="Rectangle_1596" data-name="Rectangle 1596"><g id="Group_4372" data-name="Group 4372"><g class="cls-38"><g id="Group_4371" data-name="Group 4371"><g id="Rectangle_2160" data-name="Rectangle 2160"><rect class="cls-39" x="225.94" y="21.94" width="1.11" height="39.49"/></g><g id="Rectangle_2161" data-name="Rectangle 2161"><rect class="cls-40" x="224.54" y="21.94" width="1.41" height="39.49"/></g><g id="Rectangle_2162" data-name="Rectangle 2162"><rect class="cls-41" x="223.13" y="21.94" width="1.41" height="39.49"/></g><g id="Rectangle_2163" data-name="Rectangle 2163"><rect class="cls-42" x="221.72" y="21.94" width="1.41" height="39.49"/></g><g id="Rectangle_2164" data-name="Rectangle 2164"><rect class="cls-43" x="221.57" y="21.94" width="0.15" height="39.49"/></g></g></g></g></g><g id="Rectangle_1597" data-name="Rectangle 1597"><g id="Group_4374" data-name="Group 4374"><g class="cls-44"><g id="Group_4373" data-name="Group 4373"><g id="Rectangle_2165" data-name="Rectangle 2165"><rect class="cls-45" x="204.84" y="25.23" width="0.06" height="32.91"/></g><g id="Rectangle_2166" data-name="Rectangle 2166"><rect class="cls-46" x="203.44" y="25.23" width="1.41" height="32.91"/></g><g id="Rectangle_2167" data-name="Rectangle 2167"><rect class="cls-47" x="202.03" y="25.23" width="1.41" height="32.91"/></g><g id="Rectangle_2168" data-name="Rectangle 2168"><rect class="cls-48" x="200.62" y="25.23" width="1.41" height="32.91"/></g><g id="Rectangle_2169" data-name="Rectangle 2169"><rect class="cls-49" x="199.41" y="25.23" width="1.21" height="32.91"/></g></g></g></g></g><g id="Rectangle_1598" data-name="Rectangle 1598"><g id="Group_4376" data-name="Group 4376"><g class="cls-50"><g id="Group_4375" data-name="Group 4375"><g id="Rectangle_2170" data-name="Rectangle 2170"><rect class="cls-51" x="182.35" y="28.52" width="0.39" height="26.33"/></g><g id="Rectangle_2171" data-name="Rectangle 2171"><rect class="cls-52" x="180.95" y="28.52" width="1.4" height="26.33"/></g><g id="Rectangle_2172" data-name="Rectangle 2172"><rect class="cls-53" x="179.55" y="28.52" width="1.4" height="26.33"/></g><g id="Rectangle_2173" data-name="Rectangle 2173"><rect class="cls-54" x="178.15" y="28.52" width="1.4" height="26.33"/></g><g id="Rectangle_2174" data-name="Rectangle 2174"><rect class="cls-55" x="177.26" y="28.52" width="0.89" height="26.33"/></g></g></g></g></g><g id="Rectangle_1599" data-name="Rectangle 1599"><g id="Group_4378" data-name="Group 4378"><g class="cls-56"><g id="Group_4377" data-name="Group 4377"><g id="Rectangle_2175" data-name="Rectangle 2175"><rect class="cls-57" x="159.95" y="25.23" width="0.63" height="32.91"/></g><g id="Rectangle_2176" data-name="Rectangle 2176"><rect class="cls-58" x="158.55" y="25.23" width="1.4" height="32.91"/></g><g id="Rectangle_2177" data-name="Rectangle 2177"><rect class="cls-59" x="157.15" y="25.23" width="1.4" height="32.91"/></g><g id="Rectangle_2178" data-name="Rectangle 2178"><rect class="cls-60" x="155.75" y="25.23" width="1.4" height="32.91"/></g><g id="Rectangle_2179" data-name="Rectangle 2179"><rect class="cls-61" x="155.1" y="25.23" width="0.65" height="32.91"/></g></g></g></g></g><g id="Rectangle_1600" data-name="Rectangle 1600"><g id="Group_4380" data-name="Group 4380"><g class="cls-62"><g id="Group_4379" data-name="Group 4379"><g id="Rectangle_2180" data-name="Rectangle 2180"><rect class="cls-63" x="137.55" y="21.94" width="0.88" height="39.49"/></g><g id="Rectangle_2181" data-name="Rectangle 2181"><rect class="cls-64" x="136.15" y="21.94" width="1.4" height="39.49"/></g><g id="Rectangle_2182" data-name="Rectangle 2182"><rect class="cls-65" x="134.75" y="21.94" width="1.4" height="39.49"/></g><g id="Rectangle_2183" data-name="Rectangle 2183"><rect class="cls-66" x="133.35" y="21.94" width="1.4" height="39.49"/></g><g id="Rectangle_2184" data-name="Rectangle 2184"><rect class="cls-67" x="132.94" y="21.94" width="0.41" height="39.49"/></g></g></g></g></g><g id="Rectangle_1601" data-name="Rectangle 1601"><g id="Group_4382" data-name="Group 4382"><g class="cls-68"><g id="Group_4381" data-name="Group 4381"><g id="Rectangle_2185" data-name="Rectangle 2185"><rect class="cls-69" x="115.15" y="17.55" width="1.12" height="48.27"/></g><g id="Rectangle_2186" data-name="Rectangle 2186"><rect class="cls-70" x="113.75" y="17.55" width="1.4" height="48.27"/></g><g id="Rectangle_2187" data-name="Rectangle 2187"><rect class="cls-71" x="112.35" y="17.55" width="1.4" height="48.27"/></g><g id="Rectangle_2188" data-name="Rectangle 2188"><rect class="cls-72" x="110.95" y="17.55" width="1.4" height="48.27"/></g><g id="Rectangle_2189" data-name="Rectangle 2189"><rect class="cls-73" x="110.79" y="17.55" width="0.16" height="48.27"/></g></g></g></g></g><g id="Rectangle_1602" data-name="Rectangle 1602"><g id="Group_4384" data-name="Group 4384"><g class="cls-74"><g id="Group_4383" data-name="Group 4383"><g id="Rectangle_2190" data-name="Rectangle 2190"><rect class="cls-75" x="92.75" y="15.36" width="1.36" height="52.65"/></g><g id="Rectangle_2191" data-name="Rectangle 2191"><rect class="cls-76" x="91.35" y="15.36" width="1.4" height="52.65"/></g><g id="Rectangle_2192" data-name="Rectangle 2192"><rect class="cls-77" x="89.95" y="15.36" width="1.4" height="52.65"/></g><g id="Rectangle_2193" data-name="Rectangle 2193"><rect class="cls-78" x="88.63" y="15.36" width="1.32" height="52.65"/></g></g></g></g></g><g id="Rectangle_1603" data-name="Rectangle 1603"><g id="Group_4386" data-name="Group 4386"><g class="cls-79"><g id="Group_4385" data-name="Group 4385"><g id="Rectangle_2194" data-name="Rectangle 2194"><rect class="cls-80" x="71.75" y="12.07" width="0.2" height="59.23"/></g><g id="Rectangle_2195" data-name="Rectangle 2195"><rect class="cls-81" x="70.35" y="12.07" width="1.4" height="59.23"/></g><g id="Rectangle_2196" data-name="Rectangle 2196"><rect class="cls-82" x="68.95" y="12.07" width="1.4" height="59.23"/></g><g id="Rectangle_2197" data-name="Rectangle 2197"><rect class="cls-83" x="67.55" y="12.07" width="1.4" height="59.23"/></g><g id="Rectangle_2198" data-name="Rectangle 2198"><rect class="cls-84" x="66.47" y="12.07" width="1.08" height="59.23"/></g></g></g></g></g><g id="Rectangle_1604" data-name="Rectangle 1604"><g id="Group_4388" data-name="Group 4388"><g class="cls-85"><g id="Group_4387" data-name="Group 4387"><g id="Rectangle_2199" data-name="Rectangle 2199"><rect class="cls-86" x="49.35" y="8.78" width="0.45" height="65.82"/></g><g id="Rectangle_2200" data-name="Rectangle 2200"><rect class="cls-87" x="47.95" y="8.78" width="1.4" height="65.82"/></g><g id="Rectangle_2201" data-name="Rectangle 2201"><rect class="cls-88" x="46.55" y="8.78" width="1.4" height="65.82"/></g><g id="Rectangle_2202" data-name="Rectangle 2202"><rect class="cls-89" x="45.15" y="8.78" width="1.4" height="65.82"/></g><g id="Rectangle_2203" data-name="Rectangle 2203"><rect class="cls-90" x="44.31" y="8.78" width="0.84" height="65.82"/></g></g></g></g></g><g id="Rectangle_1605" data-name="Rectangle 1605"><g id="Group_4390" data-name="Group 4390"><g class="cls-91"><g id="Group_4389" data-name="Group 4389"><g id="Rectangle_2204" data-name="Rectangle 2204"><rect class="cls-92" x="26.95" y="5.48" width="0.69" height="72.4"/></g><g id="Rectangle_2205" data-name="Rectangle 2205"><rect class="cls-93" x="25.55" y="5.48" width="1.4" height="72.4"/></g><g id="Rectangle_2206" data-name="Rectangle 2206"><rect class="cls-94" x="24.15" y="5.48" width="1.4" height="72.4"/></g><g id="Rectangle_2207" data-name="Rectangle 2207"><rect class="cls-95" x="22.75" y="5.48" width="1.4" height="72.4"/></g><g id="Rectangle_2208" data-name="Rectangle 2208"><rect class="cls-96" x="22.16" y="5.48" width="0.59" height="72.4"/></g></g></g></g></g><g id="Rectangle_1606" data-name="Rectangle 1606"><g id="Group_4392" data-name="Group 4392"><g class="cls-97"><g id="Group_4391" data-name="Group 4391"><g id="Rectangle_2209" data-name="Rectangle 2209"><rect class="cls-98" x="4.55" width="0.94" height="83.37"/></g><g id="Rectangle_2210" data-name="Rectangle 2210"><rect class="cls-99" x="3.15" width="1.4" height="83.37"/></g><g id="Rectangle_2211" data-name="Rectangle 2211"><rect class="cls-99" width="3.15" height="83.37"/></g></g></g></g></g></g></g></g></svg>