<svg xmlns="http://www.w3.org/2000/svg" xmlns:xlink="http://www.w3.org/1999/xlink" viewBox="0 0 360 83.37"><defs><style>.cls-1{fill:none;}.cls-2{clip-path:url(#clip-path);}.cls-3{fill:#0102fc;}.cls-4{fill:#0203fc;}.cls-5{fill:#0304fc;}.cls-6{fill:#0405fc;}.cls-7{fill:#0506fc;}.cls-8{fill:#0607fc;}.cls-9{fill:#0708fc;}.cls-10{clip-path:url(#clip-path-2);}.cls-11{fill:#181afc;}.cls-12{fill:#191bfc;}.cls-13{fill:#1a1cfc;}.cls-14{fill:#1b1dfc;}.cls-15{fill:#1c1efc;}.cls-16{fill:#1d1ffc;}.cls-17{fill:#1e20fc;}.cls-18{clip-path:url(#clip-path-3);}.cls-19{fill:#2f32fd;}.cls-20{fill:#3033fd;}.cls-21{fill:#3134fd;}.cls-22{fill:#3235fd;}.cls-23{fill:#3336fd;}.cls-24{fill:#3437fd;}.cls-25{fill:#3438fd;}.cls-26{clip-path:url(#clip-path-4);}.cls-27{fill:#464afd;}.cls-28{fill:#474bfd;}.cls-29{fill:#484cfd;}.cls-30{fill:#494dfd;}.cls-31{fill:#494efd;}.cls-32{fill:#4a4ffd;}.cls-33{fill:#4b50fd;}.cls-34{clip-path:url(#clip-path-5);}.cls-35{fill:#5d62fd;}.cls-36{fill:#5e63fd;}.cls-37{fill:#5e65fe;}.cls-38{fill:#5f66fe;}.cls-39{fill:#6067fe;}.cls-40{fill:#6168fe;}.cls-41{fill:#6269fe;}.cls-42{clip-path:url(#clip-path-6);}.cls-43{fill:#737bfe;}.cls-44{fill:#747cfe;}.cls-45{fill:#757dfe;}.cls-46{fill:#767efe;}.cls-47{fill:#777ffe;}.cls-48{fill:#7880fe;}.cls-49{fill:#7981fe;}.cls-50{clip-path:url(#clip-path-7);}.cls-51{fill:#8a93fe;}.cls-52{fill:#8b94fe;}.cls-53{fill:#8c95fe;}.cls-54{fill:#8d96fe;}.cls-55{fill:#8e97fe;}.cls-56{fill:#8f98fe;}.cls-57{fill:#9099fe;}.cls-58{clip-path:url(#clip-path-8);}.cls-59{fill:#a1abff;}.cls-60{fill:#a2acff;}.cls-61{fill:#a3adff;}.cls-62{fill:#a4aeff;}.cls-63{fill:#a5afff;}.cls-64{fill:#a6b0ff;}.cls-65{fill:#a7b1ff;}.cls-66{clip-path:url(#clip-path-9);}.cls-67{fill:#b8c3ff;}.cls-68{fill:#b9c4ff;}.cls-69{fill:#bac5ff;}.cls-70{fill:#bbc6ff;}.cls-71{fill:#bcc7ff;}.cls-72{clip-path:url(#clip-path-10);}.cls-73{fill:#aab4ff;}.cls-74{fill:#a9b3ff;}.cls-75{fill:#a8b2ff;}.cls-76{clip-path:url(#clip-path-11);}.cls-77{fill:#929bfe;}.cls-78{fill:#919afe;}.cls-79{clip-path:url(#clip-path-12);}.cls-80{fill:#7a82fe;}.cls-81{clip-path:url(#clip-path-13);}.cls-82{fill:#636afe;}.cls-83{clip-path:url(#clip-path-14);}.cls-84{clip-path:url(#clip-path-15);}.cls-85{fill:#2e31fd;}.cls-86{clip-path:url(#clip-path-16);}.cls-87{fill:#1719fc;}.cls-88{clip-path:url(#clip-path-17);}.cls-89{fill:#0001fc;}</style><clipPath id="clip-path" transform="translate(0 0)"><path class="cls-1" d="M2.74,0h0A2.75,2.75,0,0,1,5.49,2.74V80.63a2.75,2.75,0,0,1-2.75,2.74h0A2.74,2.74,0,0,1,0,80.63H0V2.74A2.74,2.74,0,0,1,2.74,0Z"/></clipPath><clipPath id="clip-path-2" transform="translate(0 0)"><path class="cls-1" d="M24.9,0h0a2.74,2.74,0,0,1,2.74,2.74V80.63a2.74,2.74,0,0,1-2.74,2.74h0a2.74,2.74,0,0,1-2.74-2.74h0V2.74A2.74,2.74,0,0,1,24.9,0Z"/></clipPath><clipPath id="clip-path-3" transform="translate(0 0)"><path class="cls-1" d="M47.06,0h0A2.74,2.74,0,0,1,49.8,2.74V80.63a2.74,2.74,0,0,1-2.74,2.74h0a2.75,2.75,0,0,1-2.75-2.74h0V2.74A2.75,2.75,0,0,1,47.06,0Z"/></clipPath><clipPath id="clip-path-4" transform="translate(0 0)"><path class="cls-1" d="M69.21,0h0A2.75,2.75,0,0,1,72,2.74V80.63a2.75,2.75,0,0,1-2.75,2.74h0a2.74,2.74,0,0,1-2.74-2.74h0V2.74A2.74,2.74,0,0,1,69.21,0Z"/></clipPath><clipPath id="clip-path-5" transform="translate(0 0)"><path class="cls-1" d="M91.37,0h0a2.74,2.74,0,0,1,2.74,2.74V80.63a2.74,2.74,0,0,1-2.74,2.74h0a2.74,2.74,0,0,1-2.74-2.74h0V2.74A2.74,2.74,0,0,1,91.37,0Z"/></clipPath><clipPath id="clip-path-6" transform="translate(0 0)"><path class="cls-1" d="M113.53,0h0a2.74,2.74,0,0,1,2.74,2.74V80.63a2.74,2.74,0,0,1-2.74,2.74h0a2.74,2.74,0,0,1-2.74-2.74h0V2.74A2.74,2.74,0,0,1,113.53,0Z"/></clipPath><clipPath id="clip-path-7" transform="translate(0 0)"><path class="cls-1" d="M135.69,0h0a2.74,2.74,0,0,1,2.74,2.74V80.63a2.74,2.74,0,0,1-2.74,2.74h0a2.75,2.75,0,0,1-2.75-2.74h0V2.74A2.75,2.75,0,0,1,135.69,0Z"/></clipPath><clipPath id="clip-path-8" transform="translate(0 0)"><path class="cls-1" d="M157.84,0h0a2.74,2.74,0,0,1,2.74,2.74V80.63a2.73,2.73,0,0,1-2.74,2.74h0a2.74,2.74,0,0,1-2.74-2.74V2.74A2.74,2.74,0,0,1,157.84,0Z"/></clipPath><clipPath id="clip-path-9" transform="translate(0 0)"><path class="cls-1" d="M180,0h0a2.74,2.74,0,0,1,2.74,2.74V80.63A2.74,2.74,0,0,1,180,83.37h0a2.74,2.74,0,0,1-2.74-2.74V2.74A2.74,2.74,0,0,1,180,0Z"/></clipPath><clipPath id="clip-path-10" transform="translate(0 0)"><path class="cls-1" d="M202.16,0h0a2.74,2.74,0,0,1,2.74,2.74V80.63a2.74,2.74,0,0,1-2.74,2.74h0a2.75,2.75,0,0,1-2.75-2.74V2.74A2.75,2.75,0,0,1,202.16,0Z"/></clipPath><clipPath id="clip-path-11" transform="translate(0 0)"><path class="cls-1" d="M224.31,0h0a2.75,2.75,0,0,1,2.75,2.74V80.63a2.74,2.74,0,0,1-2.74,2.74h0a2.74,2.74,0,0,1-2.74-2.74V2.74A2.74,2.74,0,0,1,224.31,0Z"/></clipPath><clipPath id="clip-path-12" transform="translate(0 0)"><path class="cls-1" d="M246.47,0h0a2.74,2.74,0,0,1,2.74,2.74V80.63a2.74,2.74,0,0,1-2.74,2.74h0a2.74,2.74,0,0,1-2.74-2.74V2.74A2.74,2.74,0,0,1,246.47,0Z"/></clipPath><clipPath id="clip-path-13" transform="translate(0 0)"><path class="cls-1" d="M268.63,0h0a2.74,2.74,0,0,1,2.74,2.74V80.63a2.74,2.74,0,0,1-2.74,2.74h0a2.74,2.74,0,0,1-2.74-2.74h0V2.74A2.74,2.74,0,0,1,268.63,0Z"/></clipPath><clipPath id="clip-path-14" transform="translate(0 0)"><path class="cls-1" d="M290.79,0h0a2.74,2.74,0,0,1,2.74,2.74h0V80.63a2.74,2.74,0,0,1-2.74,2.74h0A2.75,2.75,0,0,1,288,80.63h0V2.74A2.75,2.75,0,0,1,290.79,0Z"/></clipPath><clipPath id="clip-path-15" transform="translate(0 0)"><path class="cls-1" d="M312.94,0h0a2.75,2.75,0,0,1,2.75,2.74h0V80.63A2.74,2.74,0,0,1,313,83.37h0a2.74,2.74,0,0,1-2.74-2.74h0V2.74A2.74,2.74,0,0,1,312.94,0Z"/></clipPath><clipPath id="clip-path-16" transform="translate(0 0)"><path class="cls-1" d="M335.1,0h0a2.74,2.74,0,0,1,2.74,2.74h0V80.63a2.74,2.74,0,0,1-2.74,2.74h0a2.74,2.74,0,0,1-2.74-2.74h0V2.74A2.74,2.74,0,0,1,335.1,0Z"/></clipPath><clipPath id="clip-path-17" transform="translate(0 0)"><path class="cls-1" d="M357.26,0h0A2.74,2.74,0,0,1,360,2.74h0V80.63a2.74,2.74,0,0,1-2.74,2.74h0a2.75,2.75,0,0,1-2.75-2.74h0V2.74A2.75,2.75,0,0,1,357.26,0Z"/></clipPath></defs><g id="Layer_2" data-name="Layer 2"><g id="Layer_1-2" data-name="Layer 1"><g id="Rectangle_1573" data-name="Rectangle 1573"><g class="cls-2"><rect class="cls-3" width="0.87" height="83.37"/><rect class="cls-4" x="0.87" width="0.92" height="83.37"/><rect class="cls-5" x="1.79" width="0.92" height="83.37"/><rect class="cls-6" x="2.71" width="0.92" height="83.37"/><rect class="cls-7" x="3.63" width="0.92" height="83.37"/><rect class="cls-8" x="4.55" width="0.92" height="83.37"/><rect class="cls-9" x="5.47" width="0.01" height="83.37"/></g></g><g id="Rectangle_1573-2" data-name="Rectangle 1573-2"><g class="cls-10"><rect class="cls-11" x="22.16" width="0.82" height="83.37"/><rect class="cls-12" x="22.98" width="0.92" height="83.37"/><rect class="cls-13" x="23.9" width="0.92" height="83.37"/><rect class="cls-14" x="24.82" width="0.92" height="83.37"/><rect class="cls-15" x="25.74" width="0.92" height="83.37"/><rect class="cls-16" x="26.67" width="0.92" height="83.37"/><rect class="cls-17" x="27.59" width="0.05" height="83.37"/></g></g><g id="Rectangle_1573-3" data-name="Rectangle 1573-3"><g class="cls-18"><rect class="cls-19" x="44.31" width="0.78" height="83.37"/><rect class="cls-20" x="45.1" width="0.92" height="83.37"/><rect class="cls-21" x="46.02" width="0.92" height="83.37"/><rect class="cls-22" x="46.94" width="0.92" height="83.37"/><rect class="cls-23" x="47.86" width="0.92" height="83.37"/><rect class="cls-24" x="48.78" width="0.92" height="83.37"/><rect class="cls-25" x="49.7" width="0.1" height="83.37"/></g></g><g id="Rectangle_1573-4" data-name="Rectangle 1573-4"><g class="cls-26"><rect class="cls-27" x="66.47" width="0.74" height="83.37"/><rect class="cls-28" x="67.21" width="0.92" height="83.37"/><rect class="cls-29" x="68.13" width="0.92" height="83.37"/><rect class="cls-30" x="69.05" width="0.92" height="83.37"/><rect class="cls-31" x="69.97" width="0.92" height="83.37"/><rect class="cls-32" x="70.89" width="0.92" height="83.37"/><rect class="cls-33" x="71.82" width="0.14" height="83.37"/></g></g><g id="Rectangle_1573-5" data-name="Rectangle 1573-5"><g class="cls-34"><rect class="cls-35" x="88.63" width="0.7" height="83.37"/><rect class="cls-36" x="89.33" width="0.92" height="83.37"/><rect class="cls-37" x="90.25" width="0.92" height="83.37"/><rect class="cls-38" x="91.17" width="0.92" height="83.37"/><rect class="cls-39" x="92.09" width="0.92" height="83.37"/><rect class="cls-40" x="93.01" width="0.92" height="83.37"/><rect class="cls-41" x="93.93" width="0.18" height="83.37"/></g></g><g id="Rectangle_1573-6" data-name="Rectangle 1573-6"><g class="cls-42"><rect class="cls-43" x="110.79" width="0.66" height="83.37"/><rect class="cls-44" x="111.44" width="0.92" height="83.37"/><rect class="cls-45" x="112.36" width="0.92" height="83.37"/><rect class="cls-46" x="113.29" width="0.92" height="83.37"/><rect class="cls-47" x="114.21" width="0.92" height="83.37"/><rect class="cls-48" x="115.13" width="0.92" height="83.37"/><rect class="cls-49" x="116.05" width="0.22" height="83.37"/></g></g><g id="Rectangle_1573-7" data-name="Rectangle 1573-7"><g class="cls-50"><rect class="cls-51" x="132.94" width="0.61" height="83.37"/><rect class="cls-52" x="133.56" width="0.92" height="83.37"/><rect class="cls-53" x="134.48" width="0.92" height="83.37"/><rect class="cls-54" x="135.4" width="0.92" height="83.37"/><rect class="cls-55" x="136.32" width="0.92" height="83.37"/><rect class="cls-56" x="137.24" width="0.92" height="83.37"/><rect class="cls-57" x="138.16" width="0.26" height="83.37"/></g></g><g id="Rectangle_1573-8" data-name="Rectangle 1573-8"><g class="cls-58"><rect class="cls-59" x="155.1" width="0.57" height="83.37"/><rect class="cls-60" x="155.67" width="0.92" height="83.37"/><rect class="cls-61" x="156.59" width="0.92" height="83.37"/><rect class="cls-62" x="157.51" width="0.92" height="83.37"/><rect class="cls-63" x="158.43" width="0.92" height="83.37"/><rect class="cls-64" x="159.36" width="0.92" height="83.37"/><rect class="cls-65" x="160.28" width="0.31" height="83.37"/></g></g><g id="Rectangle_1573-9" data-name="Rectangle 1573-9"><g class="cls-66"><rect class="cls-67" x="177.26" width="0.53" height="83.37"/><rect class="cls-68" x="177.79" width="0.92" height="83.37"/><rect class="cls-69" x="178.71" width="0.92" height="83.37"/><rect class="cls-70" x="179.63" width="0.92" height="83.37"/><rect class="cls-71" x="180.55" width="0.92" height="83.37"/><rect class="cls-71" x="181.47" width="0.9" height="83.37"/><rect class="cls-70" x="182.37" width="0.37" height="83.37"/></g></g><g id="Rectangle_1573-10" data-name="Rectangle 1573-10"><g class="cls-72"><rect class="cls-73" x="199.41" width="0.05" height="83.37"/><rect class="cls-74" x="199.47" width="0.9" height="83.37"/><rect class="cls-75" x="200.37" width="0.9" height="83.37"/><rect class="cls-65" x="201.27" width="0.9" height="83.37"/><rect class="cls-64" x="202.16" width="0.9" height="83.37"/><rect class="cls-63" x="203.06" width="0.9" height="83.37"/><rect class="cls-62" x="203.96" width="0.9" height="83.37"/><rect class="cls-61" x="204.86" width="0.04" height="83.37"/></g></g><g id="Rectangle_1573-11" data-name="Rectangle 1573-11"><g class="cls-76"><rect class="cls-77" x="221.57" width="0.38" height="83.37"/><rect class="cls-78" x="221.95" width="0.9" height="83.37"/><rect class="cls-57" x="222.85" width="0.9" height="83.37"/><rect class="cls-56" x="223.75" width="0.9" height="83.37"/><rect class="cls-55" x="224.65" width="0.9" height="83.37"/><rect class="cls-54" x="225.55" width="0.9" height="83.37"/><rect class="cls-53" x="226.45" width="0.6" height="83.37"/></g></g><g id="Rectangle_1573-12" data-name="Rectangle 1573-12"><g class="cls-79"><rect class="cls-80" x="243.73" width="0.72" height="83.37"/><rect class="cls-49" x="244.44" width="0.9" height="83.37"/><rect class="cls-48" x="245.34" width="0.9" height="83.37"/><rect class="cls-47" x="246.24" width="0.9" height="83.37"/><rect class="cls-46" x="247.14" width="0.9" height="83.37"/><rect class="cls-45" x="248.04" width="0.9" height="83.37"/><rect class="cls-44" x="248.94" width="0.27" height="83.37"/></g></g><g id="Rectangle_1573-13" data-name="Rectangle 1573-13"><g class="cls-81"><rect class="cls-82" x="265.89" width="0.15" height="83.37"/><rect class="cls-41" x="266.03" width="0.9" height="83.37"/><rect class="cls-40" x="266.93" width="0.9" height="83.37"/><rect class="cls-39" x="267.83" width="0.9" height="83.37"/><rect class="cls-38" x="268.73" width="0.9" height="83.37"/><rect class="cls-37" x="269.63" width="0.9" height="83.37"/><rect class="cls-36" x="270.53" width="0.84" height="83.37"/></g></g><g id="Rectangle_1573-14" data-name="Rectangle 1573-14"><g class="cls-83"><rect class="cls-33" x="288.04" width="0.48" height="83.37"/><rect class="cls-32" x="288.52" width="0.9" height="83.37"/><rect class="cls-31" x="289.42" width="0.9" height="83.37"/><rect class="cls-30" x="290.32" width="0.9" height="83.37"/><rect class="cls-29" x="291.22" width="0.9" height="83.37"/><rect class="cls-28" x="292.12" width="0.9" height="83.37"/><rect class="cls-27" x="293.02" width="0.51" height="83.37"/></g></g><g id="Rectangle_1573-15" data-name="Rectangle 1573-15"><g class="cls-84"><rect class="cls-24" x="310.2" width="0.82" height="83.37"/><rect class="cls-23" x="311.02" width="0.9" height="83.37"/><rect class="cls-22" x="311.92" width="0.9" height="83.37"/><rect class="cls-21" x="312.82" width="0.9" height="83.37"/><rect class="cls-20" x="313.72" width="0.9" height="83.37"/><rect class="cls-19" x="314.62" width="0.9" height="83.37"/><rect class="cls-85" x="315.52" width="0.17" height="83.37"/></g></g><g id="Rectangle_1573-16" data-name="Rectangle 1573-16"><g class="cls-86"><rect class="cls-16" x="332.36" width="0.25" height="83.37"/><rect class="cls-15" x="332.61" width="0.9" height="83.37"/><rect class="cls-14" x="333.51" width="0.9" height="83.37"/><rect class="cls-13" x="334.41" width="0.9" height="83.37"/><rect class="cls-12" x="335.31" width="0.9" height="83.37"/><rect class="cls-11" x="336.21" width="0.9" height="83.37"/><rect class="cls-87" x="337.11" width="0.74" height="83.37"/></g></g><g id="Rectangle_1589" data-name="Rectangle 1589"><g class="cls-88"><rect class="cls-7" x="354.51" width="0.58" height="83.37"/><rect class="cls-6" x="355.1" width="0.9" height="83.37"/><rect class="cls-5" x="356" width="0.9" height="83.37"/><rect class="cls-4" x="356.9" width="0.9" height="83.37"/><rect class="cls-3" x="357.79" width="0.9" height="83.37"/><rect class="cls-89" x="358.69" width="0.9" height="83.37"/><rect class="cls-89" x="359.59" width="0.41" height="83.37"/></g></g></g></g></svg>